<svg width="32" height="32" viewBox="0 0 32 32" fill="none" xmlns="http://www.w3.org/2000/svg">
<rect x="0.5" y="0.5" width="31" height="31" rx="15.5" stroke="url(#paint0_linear_320_3082)" stroke-linejoin="round"/>
<path d="M16 13.3059L21.3067 8L21.4415 8.13486L21.5573 8.30857C22.1206 9.15379 22.8456 9.87911 23.6907 10.4427L23.8659 10.5592L24 10.6941L18.6941 16L24 21.3067L23.8651 21.4408L23.6914 21.5573C22.8462 22.1206 22.1209 22.8456 21.5573 23.6907L21.4408 23.8659L21.3067 24L16 18.6941L10.6941 24L10.5592 23.8651L10.4427 23.6914C9.8794 22.8462 9.15434 22.1209 8.30933 21.5573L8.1341 21.4408L8 21.3067L13.3067 16L8 10.6941L8.13486 10.5592L8.30933 10.4427C9.15427 9.87932 9.87932 9.15427 10.4427 8.30933L10.5592 8.1341L10.6941 8L16 13.3059Z" stroke="url(#paint1_linear_320_3082)"/>
<defs>
<linearGradient id="paint0_linear_320_3082" x1="16" y1="-1.93897e-06" x2="25.965" y2="28.9355" gradientUnits="userSpaceOnUse">
<stop offset="0.385417" stop-color="#E5D193"/>
<stop offset="1" stop-color="#EBE1C2"/>
</linearGradient>
<linearGradient id="paint1_linear_320_3082" x1="16" y1="8" x2="20.9825" y2="22.4678" gradientUnits="userSpaceOnUse">
<stop offset="0.385417" stop-color="#E5D193"/>
<stop offset="1" stop-color="#EBE1C2"/>
</linearGradient>
</defs>
</svg>
