<svg width="32" height="32" viewBox="0 0 32 32" fill="none" xmlns="http://www.w3.org/2000/svg">
<path d="M18.5712 14.2494C18.5715 14.7924 18.4067 15.3222 18.0997 15.7657C17.7927 16.2092 17.3585 16.5445 16.8569 16.7256V20.3743C16.8569 20.6063 16.7666 20.8289 16.6059 20.993C16.4451 21.1571 16.2271 21.2492 15.9998 21.2492C15.7725 21.2492 15.5545 21.1571 15.3937 20.993C15.233 20.8289 15.1427 20.6063 15.1427 20.3743V16.7256C14.6983 16.5652 14.3056 16.2832 14.0076 15.9104C13.7096 15.5376 13.5177 15.0883 13.4528 14.6117C13.388 14.1351 13.4528 13.6495 13.64 13.2079C13.8273 12.7663 14.1299 12.3858 14.5147 12.1079C14.8995 11.83 15.3517 11.6654 15.8219 11.6321C16.2921 11.5988 16.7623 11.6981 17.181 11.9191C17.5997 12.1401 17.9508 12.4744 18.196 12.8854C18.4411 13.2963 18.5709 13.7682 18.5712 14.2494ZM16.4747 2.14656C16.334 2.051 16.1688 2.00002 15.9998 2.00002C15.8308 2.00002 15.6656 2.051 15.525 2.14656C12.2887 4.37374 8.59955 5.82233 4.73542 6.38324C4.53125 6.41314 4.34449 6.51719 4.20941 6.6763C4.07432 6.83542 3.99997 7.03892 4 7.24948V15.1243C4 21.9335 7.95479 26.9016 15.6912 29.9413C15.8898 30.0196 16.1098 30.0196 16.3084 29.9413C24.0448 26.9016 27.9996 21.9317 27.9996 15.1243V7.24948C27.9996 7.03866 27.925 6.83494 27.7895 6.67579C27.6541 6.51664 27.4669 6.41276 27.2625 6.38324C23.3989 5.82207 19.7104 4.3735 16.4747 2.14656ZM5.71426 7.99846C9.11024 7.41131 12.3672 6.1752 15.3141 4.35502L15.9998 3.91928L16.6855 4.35502C19.6324 6.1752 22.8894 7.41131 26.2853 7.99846V15.1243C26.2853 21.0602 22.9117 25.3844 15.9998 28.1844C9.08792 25.3844 5.71426 21.0602 5.71426 15.1243V7.99846Z" fill="url(#paint0_linear_320_3124)"/>
<defs>
<linearGradient id="paint0_linear_320_3124" x1="15.9998" y1="2.00001" x2="25.7974" y2="26.3848" gradientUnits="userSpaceOnUse">
<stop offset="0.385417" stop-color="#E5D193"/>
<stop offset="1" stop-color="#EBE1C2"/>
</linearGradient>
</defs>
</svg>
