<svg width="32" height="32" viewBox="0 0 32 32" fill="none" xmlns="http://www.w3.org/2000/svg">
<g clip-path="url(#clip0_320_3084)">
<path d="M16.666 10.3243V24.018M16.666 10.3243C16.666 9.17744 16.2263 8.07753 15.4435 7.26657C14.6607 6.4556 13.5991 6 12.4921 6H2.75297V7.56396C2.75302 14.1889 2.0532 20.794 0.666016 27.2613V27.6216H12.4921C13.5991 27.6216 14.6607 28.0772 15.4435 28.8882C16.2263 29.6992 16.666 30.7991 16.666 31.9459M16.666 10.3243C16.666 9.17744 17.1058 8.07753 17.8885 7.26657C18.6713 6.4556 19.7329 6 20.8399 6H30.5791V7.56396C30.5791 14.1888 31.2789 20.7935 32.666 27.2613V27.6216H20.8399C19.7329 27.6216 18.6713 28.0772 17.8885 28.8882C17.1058 29.6992 16.666 30.7991 16.666 31.9459M16.666 31.9459V32.6667" stroke="url(#paint0_linear_320_3084)"/>
</g>
<defs>
<linearGradient id="paint0_linear_320_3084" x1="16.666" y1="6" x2="23.8179" y2="30.9203" gradientUnits="userSpaceOnUse">
<stop offset="0.385417" stop-color="#E5D193"/>
<stop offset="1" stop-color="#EBE1C2"/>
</linearGradient>
<clipPath id="clip0_320_3084">
<rect width="32" height="32" fill="white"/>
</clipPath>
</defs>
</svg>
