<svg width="32" height="32" viewBox="0 0 32 32" fill="none" xmlns="http://www.w3.org/2000/svg">
<path d="M16.2193 10.4467L17.9527 8.71333C18.8132 7.82444 19.2898 6.63295 19.2797 5.39584C19.2697 4.15874 18.7738 2.97514 17.899 2.10035C17.0242 1.22555 15.8406 0.729652 14.6035 0.719608C13.3664 0.709564 12.1749 1.18618 11.286 2.04666L9.55268 3.77999C8.97002 4.36266 8.25935 4.80266 7.47535 5.06399L4.66602 5.99999V6.33333L13.666 15.3333H13.9993L14.9367 12.524C15.1967 11.7413 15.6367 11.0307 16.2193 10.4467ZM16.2193 10.4467L16.3593 10.6667C17.9462 13.4253 20.4923 15.5039 23.5127 16.5067M23.5127 16.5067C23.6994 16.0958 24.0181 15.7602 24.4197 15.5544C24.8212 15.3485 25.2806 15.2844 25.7231 15.3726C26.1656 15.4608 26.5653 15.6961 26.8572 16.0402C27.1492 16.3842 27.3162 16.8169 27.3311 17.2679C27.346 17.7189 27.208 18.1617 26.9394 18.5243C26.6709 18.887 26.2876 19.1481 25.8519 19.2654C25.4161 19.3826 24.9535 19.3491 24.5393 19.1702C24.125 18.9913 23.7834 18.6776 23.57 18.28C23.4238 18.0091 23.3424 17.7079 23.3322 17.4002C23.322 17.0925 23.3847 16.7867 23.5127 16.5067ZM8.66602 14C8.49092 14.1751 8.28305 14.314 8.05428 14.4087C7.8255 14.5035 7.58031 14.5523 7.33268 14.5523C6.83259 14.5523 6.35297 14.3536 5.99935 14C5.82425 13.8249 5.68536 13.617 5.5906 13.3883C5.49584 13.1595 5.44706 12.9143 5.44706 12.6667C5.44706 12.1666 5.64573 11.6869 5.99935 11.3333M17.9513 2.04799L19.466 0.533325M15.9993 27.3333C15.9993 26.4533 16.15 25.5707 16.5527 24.7867C18.0583 21.8629 20.5421 19.5602 23.5713 18.28M15.9993 27.3333C23.3327 27.3333 27.3327 30 27.3327 30V31.3333H4.66602V30C4.66602 30 8.66602 27.3333 15.9993 27.3333Z" stroke="url(#paint0_linear_320_3120)"/>
<defs>
<linearGradient id="paint0_linear_320_3120" x1="15.9994" y1="0.533323" x2="27.959" y2="26.0902" gradientUnits="userSpaceOnUse">
<stop offset="0.385417" stop-color="#E5D193"/>
<stop offset="1" stop-color="#EBE1C2"/>
</linearGradient>
</defs>
</svg>
