<svg width="32" height="32" viewBox="0 0 32 32" fill="none" xmlns="http://www.w3.org/2000/svg">
<path fill-rule="evenodd" clip-rule="evenodd" d="M24.8727 7.02101C24.1701 7.12787 21.3388 8.50591 20.4731 8.88839C19.0442 9.52397 17.6023 10.1905 16.1761 10.8373C13.2869 12.1422 10.4055 13.4247 7.51632 14.7071C6.96637 14.9518 5.66122 15.458 6.08224 16.2539C6.32432 16.7123 7.61368 17.0104 8.22679 17.2354C8.89515 17.4828 9.91085 17.8709 10.6476 17.9272C11.7975 18.02 12.2527 17.5307 12.9343 17.0357C14.6683 15.7814 16.6839 14.3443 18.3864 13.0394C18.4759 12.9691 21.5519 10.4942 21.073 11.9454C20.9625 12.2885 20.6073 12.7272 20.4336 12.9072C19.0364 14.3724 17.1023 16.4395 15.7445 17.7388C15.5367 17.9384 15.1156 18.3575 14.9736 18.5543C14.1868 19.6455 15.5735 20.4667 16.6129 21.257C17.8049 22.1626 19.0495 23.0541 20.2836 23.9343C21.573 24.8539 23.5044 26.0379 23.8833 23.324C24.528 18.7034 25.3989 13.5343 25.9384 8.96713C26.0673 7.87876 26.1068 6.8382 24.8727 7.02101Z" fill="url(#paint0_linear_320_3075)"/>
<defs>
<linearGradient id="paint0_linear_320_3075" x1="16" y1="7" x2="21.1485" y2="23.6109" gradientUnits="userSpaceOnUse">
<stop offset="0.385417" stop-color="#E5D193"/>
<stop offset="1" stop-color="#EBE1C2"/>
</linearGradient>
</defs>
</svg>
