<svg width="120" height="240" viewBox="0 0 120 240" fill="none" xmlns="http://www.w3.org/2000/svg">
<mask id="path-1-inside-1_77_4735" fill="white">
<path fill-rule="evenodd" clip-rule="evenodd" d="M53.1236 69.99H66.8636C67.7036 69.99 68.3936 70.665 68.3936 71.49C68.3936 72.315 67.7036 72.99 66.8636 72.99H53.1236C52.2836 72.99 51.5936 72.315 51.5936 71.49C51.5936 70.665 52.2836 69.99 53.1236 69.99ZM32.5136 183.18C46.7186 183.18 58.2686 194.655 59.8286 210.105H59.9936H60.1736C61.7336 194.655 73.2836 183.18 87.4886 183.18C103.809 183.18 115.209 198.18 114.969 213.36C114.744 228.72 96.4886 238.74 79.5236 234.57C84.6536 234.42 105.804 234.945 105.804 213.09C105.804 201.525 95.5586 192.15 82.9136 192.15C71.1986 192.15 61.8086 200.13 60.2486 210.105C63.5036 210.24 66.0986 212.865 66.0986 216.075C66.0986 219.39 63.3686 222.06 59.9936 222.06C56.6186 222.06 53.8886 219.39 53.8886 216.075C53.8886 212.865 56.4836 210.24 59.7536 210.105C58.1786 200.13 48.8036 192.15 37.0886 192.15C24.4436 192.15 14.1836 201.525 14.1836 213.09C14.1836 234.945 35.3486 234.42 40.4786 234.57C23.5136 238.74 5.25863 228.72 5.03363 213.36C4.79363 198.18 16.1936 183.18 32.5136 183.18ZM63.5636 237.24C77.0636 235.83 87.4886 226.485 87.4886 215.19C87.4886 208.335 83.6636 202.215 77.6486 198.135C74.4236 199.305 71.0336 200.175 67.5386 200.685C76.4786 203.1 82.8986 209.715 82.8986 217.485C82.8986 226.425 74.4236 233.82 63.3836 235.08C62.8286 233.79 61.5236 232.89 59.9936 232.89C58.4636 232.89 57.1586 233.79 56.6186 235.08C45.5636 233.82 37.0886 226.425 37.0886 217.485C37.0886 209.715 43.5236 203.1 52.4636 200.685C48.9686 200.175 45.5786 199.305 42.3536 198.135C36.3386 202.215 32.5136 208.335 32.5136 215.19C32.5136 226.485 42.9386 235.83 56.4236 237.24C56.7986 238.83 58.2536 240 59.9936 240C61.7336 240 63.2036 238.83 63.5636 237.24ZM2.22863 171.24C7.29863 162.645 28.9136 162.165 39.3686 168.075C49.3736 173.73 50.9336 176.175 53.7386 180.84C53.1836 183.09 52.5386 185.325 51.7586 187.515L51.4136 187.2C51.2186 181.275 44.7986 174.255 35.1386 168.735C24.9686 162.915 12.6686 165.87 10.5086 170.64C8.46863 175.17 12.4436 181.2 15.6986 185.625C12.1736 188.16 9.21863 191.445 6.95363 195.195C0.803632 187.68 -2.46637 179.205 2.22863 171.24ZM109.494 170.64C111.534 175.17 107.559 181.2 104.289 185.625C107.844 188.19 110.829 191.505 113.094 195.285C115.179 192.84 116.814 190.245 117.954 187.62C120.429 182.34 120.924 176.85 117.969 171.585L117.774 171.24H117.759V171.225L117.609 170.985V170.97H117.594V170.955H117.579V170.94C111.429 161.25 90.9686 162.225 80.6336 168.075C70.6136 173.73 69.0686 176.175 66.2636 180.84C66.8036 183.09 67.4636 185.325 68.2286 187.515L68.5886 187.2C68.7836 181.275 75.2036 174.255 84.8486 168.735C95.0336 162.915 106.719 164.505 109.494 170.64ZM81.8336 138.36C88.1786 140.625 90.5186 150 87.0536 159.315C86.4086 161.055 85.5986 162.675 84.6686 164.145C84.7136 163.665 84.7286 163.185 84.7286 162.69C84.7286 155.265 79.9436 149.235 74.0486 149.235C68.1386 149.235 63.3536 155.265 63.3536 162.69C63.3536 164.055 63.5186 165.36 63.8186 166.59C62.0336 162.495 61.9886 156.795 64.0886 151.125C67.5536 141.825 75.5036 136.095 81.8336 138.36ZM38.1536 138.36C44.4986 136.095 52.4336 141.825 55.8986 151.125C58.0136 156.795 57.9686 162.495 56.1836 166.59C56.4836 165.36 56.6336 164.055 56.6336 162.69C56.6336 155.265 51.8486 149.235 45.9536 149.235C40.0436 149.235 35.2586 155.265 35.2586 162.69C35.2586 163.185 35.2886 163.665 35.3186 164.145C34.4036 162.675 33.5936 161.055 32.9486 159.315C29.4836 150 31.8236 140.625 38.1536 138.36ZM107.334 25.41H67.6286V18.69H52.3586V68.025H67.6286V61.305H107.334V48.03H101.229V52.335H90.2336V48.03V45.225C89.4236 47.625 87.1286 49.335 84.4286 49.335C81.7286 49.335 79.4336 47.625 78.6236 45.225V50.835H67.6286V35.88H78.6236V41.49C79.4336 39.105 81.7286 37.38 84.4286 37.38C87.1286 37.38 89.4236 39.105 90.2336 41.49V34.395H101.229V40.155L107.334 43.365V25.41ZM59.9936 115.425C63.5786 120.435 66.5486 125.88 68.7986 131.685C63.9386 141.525 61.2236 152.55 61.2236 164.19C61.2236 173.22 62.8586 181.86 65.8436 189.87C63.4436 192.525 61.4786 195.585 59.9936 198.93C58.5236 195.585 56.5586 192.525 54.1436 189.87C57.1436 181.86 58.7786 173.22 58.7786 164.19C58.7786 152.55 56.0486 141.525 51.2036 131.685C53.4536 125.88 56.4236 120.435 59.9936 115.425ZM52.3586 75.03H67.6286V121.935C66.0986 119.085 64.3886 116.34 62.4986 113.7L59.9936 110.205L57.4886 113.7C55.6136 116.34 53.9036 119.1 52.3586 121.935V75.03ZM55.4186 0H64.5836C67.1036 0 69.1586 2.025 69.1586 4.485V7.47C69.1586 9.945 67.1036 11.955 64.5836 11.955H55.4186C52.8986 11.955 50.8286 9.945 50.8286 7.47V4.485C50.8286 2.025 52.8986 0 55.4186 0ZM53.1236 13.83H66.8636C67.7036 13.83 68.3936 14.505 68.3936 15.33C68.3936 16.14 67.7036 16.815 66.8636 16.815H53.1236C52.2836 16.815 51.5936 16.14 51.5936 15.33C51.5936 14.505 52.2836 13.83 53.1236 13.83Z"/>
</mask>
<path fill-rule="evenodd" clip-rule="evenodd" d="M53.1236 69.99H66.8636C67.7036 69.99 68.3936 70.665 68.3936 71.49C68.3936 72.315 67.7036 72.99 66.8636 72.99H53.1236C52.2836 72.99 51.5936 72.315 51.5936 71.49C51.5936 70.665 52.2836 69.99 53.1236 69.99ZM32.5136 183.18C46.7186 183.18 58.2686 194.655 59.8286 210.105H59.9936H60.1736C61.7336 194.655 73.2836 183.18 87.4886 183.18C103.809 183.18 115.209 198.18 114.969 213.36C114.744 228.72 96.4886 238.74 79.5236 234.57C84.6536 234.42 105.804 234.945 105.804 213.09C105.804 201.525 95.5586 192.15 82.9136 192.15C71.1986 192.15 61.8086 200.13 60.2486 210.105C63.5036 210.24 66.0986 212.865 66.0986 216.075C66.0986 219.39 63.3686 222.06 59.9936 222.06C56.6186 222.06 53.8886 219.39 53.8886 216.075C53.8886 212.865 56.4836 210.24 59.7536 210.105C58.1786 200.13 48.8036 192.15 37.0886 192.15C24.4436 192.15 14.1836 201.525 14.1836 213.09C14.1836 234.945 35.3486 234.42 40.4786 234.57C23.5136 238.74 5.25863 228.72 5.03363 213.36C4.79363 198.18 16.1936 183.18 32.5136 183.18ZM63.5636 237.24C77.0636 235.83 87.4886 226.485 87.4886 215.19C87.4886 208.335 83.6636 202.215 77.6486 198.135C74.4236 199.305 71.0336 200.175 67.5386 200.685C76.4786 203.1 82.8986 209.715 82.8986 217.485C82.8986 226.425 74.4236 233.82 63.3836 235.08C62.8286 233.79 61.5236 232.89 59.9936 232.89C58.4636 232.89 57.1586 233.79 56.6186 235.08C45.5636 233.82 37.0886 226.425 37.0886 217.485C37.0886 209.715 43.5236 203.1 52.4636 200.685C48.9686 200.175 45.5786 199.305 42.3536 198.135C36.3386 202.215 32.5136 208.335 32.5136 215.19C32.5136 226.485 42.9386 235.83 56.4236 237.24C56.7986 238.83 58.2536 240 59.9936 240C61.7336 240 63.2036 238.83 63.5636 237.24ZM2.22863 171.24C7.29863 162.645 28.9136 162.165 39.3686 168.075C49.3736 173.73 50.9336 176.175 53.7386 180.84C53.1836 183.09 52.5386 185.325 51.7586 187.515L51.4136 187.2C51.2186 181.275 44.7986 174.255 35.1386 168.735C24.9686 162.915 12.6686 165.87 10.5086 170.64C8.46863 175.17 12.4436 181.2 15.6986 185.625C12.1736 188.16 9.21863 191.445 6.95363 195.195C0.803632 187.68 -2.46637 179.205 2.22863 171.24ZM109.494 170.64C111.534 175.17 107.559 181.2 104.289 185.625C107.844 188.19 110.829 191.505 113.094 195.285C115.179 192.84 116.814 190.245 117.954 187.62C120.429 182.34 120.924 176.85 117.969 171.585L117.774 171.24H117.759V171.225L117.609 170.985V170.97H117.594V170.955H117.579V170.94C111.429 161.25 90.9686 162.225 80.6336 168.075C70.6136 173.73 69.0686 176.175 66.2636 180.84C66.8036 183.09 67.4636 185.325 68.2286 187.515L68.5886 187.2C68.7836 181.275 75.2036 174.255 84.8486 168.735C95.0336 162.915 106.719 164.505 109.494 170.64ZM81.8336 138.36C88.1786 140.625 90.5186 150 87.0536 159.315C86.4086 161.055 85.5986 162.675 84.6686 164.145C84.7136 163.665 84.7286 163.185 84.7286 162.69C84.7286 155.265 79.9436 149.235 74.0486 149.235C68.1386 149.235 63.3536 155.265 63.3536 162.69C63.3536 164.055 63.5186 165.36 63.8186 166.59C62.0336 162.495 61.9886 156.795 64.0886 151.125C67.5536 141.825 75.5036 136.095 81.8336 138.36ZM38.1536 138.36C44.4986 136.095 52.4336 141.825 55.8986 151.125C58.0136 156.795 57.9686 162.495 56.1836 166.59C56.4836 165.36 56.6336 164.055 56.6336 162.69C56.6336 155.265 51.8486 149.235 45.9536 149.235C40.0436 149.235 35.2586 155.265 35.2586 162.69C35.2586 163.185 35.2886 163.665 35.3186 164.145C34.4036 162.675 33.5936 161.055 32.9486 159.315C29.4836 150 31.8236 140.625 38.1536 138.36ZM107.334 25.41H67.6286V18.69H52.3586V68.025H67.6286V61.305H107.334V48.03H101.229V52.335H90.2336V48.03V45.225C89.4236 47.625 87.1286 49.335 84.4286 49.335C81.7286 49.335 79.4336 47.625 78.6236 45.225V50.835H67.6286V35.88H78.6236V41.49C79.4336 39.105 81.7286 37.38 84.4286 37.38C87.1286 37.38 89.4236 39.105 90.2336 41.49V34.395H101.229V40.155L107.334 43.365V25.41ZM59.9936 115.425C63.5786 120.435 66.5486 125.88 68.7986 131.685C63.9386 141.525 61.2236 152.55 61.2236 164.19C61.2236 173.22 62.8586 181.86 65.8436 189.87C63.4436 192.525 61.4786 195.585 59.9936 198.93C58.5236 195.585 56.5586 192.525 54.1436 189.87C57.1436 181.86 58.7786 173.22 58.7786 164.19C58.7786 152.55 56.0486 141.525 51.2036 131.685C53.4536 125.88 56.4236 120.435 59.9936 115.425ZM52.3586 75.03H67.6286V121.935C66.0986 119.085 64.3886 116.34 62.4986 113.7L59.9936 110.205L57.4886 113.7C55.6136 116.34 53.9036 119.1 52.3586 121.935V75.03ZM55.4186 0H64.5836C67.1036 0 69.1586 2.025 69.1586 4.485V7.47C69.1586 9.945 67.1036 11.955 64.5836 11.955H55.4186C52.8986 11.955 50.8286 9.945 50.8286 7.47V4.485C50.8286 2.025 52.8986 0 55.4186 0ZM53.1236 13.83H66.8636C67.7036 13.83 68.3936 14.505 68.3936 15.33C68.3936 16.14 67.7036 16.815 66.8636 16.815H53.1236C52.2836 16.815 51.5936 16.14 51.5936 15.33C51.5936 14.505 52.2836 13.83 53.1236 13.83Z" stroke="url(#paint0_linear_77_4735)" stroke-width="4" stroke-linejoin="round" mask="url(#path-1-inside-1_77_4735)"/>
<defs>
<linearGradient id="paint0_linear_77_4735" x1="60.0009" y1="-1.45423e-05" x2="173.404" y2="164.647" gradientUnits="userSpaceOnUse">
<stop offset="0.385417" stop-color="#E5D193"/>
<stop offset="1" stop-color="#EBE1C2"/>
</linearGradient>
</defs>
</svg>
