<svg width="32" height="32" viewBox="0 0 32 32" fill="none" xmlns="http://www.w3.org/2000/svg">
<path fill-rule="evenodd" clip-rule="evenodd" d="M9.86421 24.4001C5.96737 23.3438 4 20.6313 4 14.3875C4 5.61876 6.7 3 15.7442 3C25.0379 3 28 5.12813 28 14.3875C28 23.2313 24.1158 24.9907 15.7442 24.9907C15.1537 24.9907 14.5853 24.9813 14.0389 24.9594L12.0747 27.1438C11.6611 27.6095 11.1558 28.172 10.4421 27.9501C9.99684 27.8126 9.86105 27.3813 9.86105 26.9157L9.86421 24.4001ZM14.9926 18.4907C13.7326 17.5938 12.5737 16.4907 11.6768 15.2375C10.9695 14.25 9.50421 11.8282 9.31474 10.7281C9.24842 10.35 9.32737 10.0656 9.51368 9.74377C9.83579 9.1844 10.5968 8.53752 11.1747 8.28752C11.4116 8.18752 11.6832 8.20314 11.9074 8.33439C12.4695 8.66564 14.0832 10.7469 13.9853 11.4438C13.96 11.6313 13.8905 11.7938 13.7737 11.9407C13.3947 12.4188 12.7884 12.4594 12.8011 13.1469C12.8074 13.5407 13.4074 14.5875 13.6316 14.9344C14.0484 15.5719 14.6042 16.1 15.2516 16.5125C15.6147 16.7438 16.6789 17.3282 17.0611 17.3344C17.7558 17.3438 17.8095 16.7344 18.28 16.3719C18.4221 16.2625 18.6021 16.175 18.7821 16.1625C19.54 16.1063 21.5737 17.6219 21.9305 18.2157C22.0663 18.4376 22.0821 18.7032 21.9779 18.9407C21.7221 19.5188 21.0463 20.2751 20.5063 20.5782C20.1811 20.7594 19.8937 20.8407 19.5084 20.7751C18.3558 20.5813 15.9274 19.1532 14.9926 18.4907ZM18.5263 13C18.5263 12.1719 17.8758 11.4969 17.0516 11.4375C16.8368 11.4219 16.5842 11.4032 16.5842 11.1094C16.5842 10.7094 17.1084 10.7782 17.3768 10.8282C18.4032 11.0313 19.18 11.925 19.18 13C19.18 13.2094 19.1105 13.4313 18.8516 13.4313C18.6211 13.4313 18.5168 13.2625 18.5232 13.0563L18.5263 13ZM11.1684 26.9501L14.4684 23.1126C14.8916 23.1282 15.3305 23.1344 15.7821 23.1344C22.8937 23.1344 26.1937 21.6719 26.1937 14.3219C26.1937 6.62501 23.6768 4.85626 15.7821 4.85626C8.10211 4.85626 5.80632 7.03126 5.80632 14.3219C5.80632 19.3688 7.38526 21.6376 10.5179 22.5657L10.5021 26.7782C10.5021 26.922 10.5021 27.1095 10.6663 27.1688C10.8621 27.2407 11.0516 27.0876 11.1684 26.9501ZM20.1684 13.4282C20.1684 11.4875 18.6526 9.9344 16.7453 9.7719C16.6253 9.76252 16.3884 9.77502 16.2905 9.7344C16.1737 9.68752 16.0916 9.57502 16.0916 9.44065C16.0916 9.16565 16.3442 9.13127 16.5653 9.13127C18.9495 9.14377 20.8442 11.0719 20.8442 13.4282C20.8442 13.5344 20.8411 13.6938 20.8032 13.7875C20.7558 13.9 20.6326 13.9688 20.5032 13.9688C20.1621 13.9688 20.1684 13.6657 20.1684 13.4282ZM21.8263 13.8938C21.8263 10.6938 19.2021 8.10314 15.9621 8.10314C15.7568 8.10314 15.5547 8.03127 15.5547 7.78439C15.5547 7.53127 15.7505 7.46564 15.9621 7.46564C19.5558 7.46564 22.4705 10.3438 22.4705 13.8938C22.4705 14.1532 22.5147 14.5875 22.1358 14.5875C21.9589 14.5875 21.8168 14.4469 21.8168 14.2719C21.8168 14.1469 21.8263 14.0219 21.8263 13.8938Z" fill="url(#paint0_linear_320_3077)"/>
<defs>
<linearGradient id="paint0_linear_320_3077" x1="16" y1="3" x2="24.0371" y2="25.4038" gradientUnits="userSpaceOnUse">
<stop offset="0.385417" stop-color="#E5D193"/>
<stop offset="1" stop-color="#EBE1C2"/>
</linearGradient>
</defs>
</svg>
