<svg width="32" height="32" viewBox="0 0 32 32" fill="none" xmlns="http://www.w3.org/2000/svg">
<path d="M19.3333 26.6667C19.3333 27.5507 18.9821 28.3986 18.357 29.0237C17.7319 29.6488 16.8841 30 16 30C15.1159 30 14.2681 29.6488 13.643 29.0237C13.0179 28.3986 12.6667 27.5507 12.6667 26.6667M30 23.3333H2V23L3.13067 21.7893C5.42945 19.3258 6.89183 16.1995 7.30933 12.856L7.75733 9.27733C8.0082 7.2681 8.98431 5.41969 10.5022 4.07954C12.0201 2.7394 13.9752 1.99982 16 1.99982C18.0248 1.99982 19.9799 2.7394 21.4978 4.07954C23.0157 5.41969 23.9918 7.2681 24.2427 9.27733L24.6907 12.8573C25.1084 16.2003 26.5708 19.3262 28.8693 21.7893L30 23V23.3333Z" stroke="url(#paint0_linear_139_814)"/>
<defs>
<linearGradient id="paint0_linear_139_814" x1="16" y1="1.99982" x2="24.7195" y2="27.3185" gradientUnits="userSpaceOnUse">
<stop offset="0.385417" stop-color="#E5D193"/>
<stop offset="1" stop-color="#EBE1C2"/>
</linearGradient>
</defs>
</svg>
