<svg width="32" height="32" viewBox="0 0 32 32" fill="none" xmlns="http://www.w3.org/2000/svg">
<g clip-path="url(#clip0_139_598)">
<path d="M14.6667 6.66669H18.6667V7.33335C18.6667 8.39422 18.2452 9.41163 17.4951 10.1618C16.7449 10.9119 15.7275 11.3334 14.6667 11.3334H9.33333H16.3333C16.9522 11.3334 17.5457 11.5792 17.9833 12.0168C18.4208 12.4544 18.6667 13.0478 18.6667 13.6667C18.6667 14.2855 18.4208 14.879 17.9833 15.3166C17.5457 15.7542 16.9522 16 16.3333 16H13.3333H15C15.3064 16 15.6098 16.0604 15.8929 16.1776C16.176 16.2949 16.4332 16.4668 16.6499 16.6834C16.8666 16.9001 17.0385 17.1573 17.1557 17.4404C17.273 17.7235 17.3333 18.0269 17.3333 18.3334C17.3333 18.6398 17.273 18.9432 17.1557 19.2263C17.0385 19.5094 16.8666 19.7666 16.6499 19.9833C16.4332 20.1999 16.176 20.3718 15.8929 20.4891C15.6098 20.6063 15.3064 20.6667 15 20.6667H13.3333H13.6667C14.2855 20.6667 14.879 20.9125 15.3166 21.3501C15.7542 21.7877 16 22.3812 16 23C16 23.6189 15.7542 24.2123 15.3166 24.6499C14.879 25.0875 14.2855 25.3334 13.6667 25.3334H0M10.6667 6.66669H4.66667C4.66667 7.90436 4.175 9.09135 3.29983 9.96652C2.42466 10.8417 1.23768 11.3334 0 11.3334M12.6667 11.3334V0.666687H19.3333M12.6667 25.3334V31.3334H19.3333M21.3333 16H32M27.428 10.6667C27.428 11.2307 26.8693 12.0747 26.3053 12.7827C25.5832 13.7004 24.7059 14.4847 23.7133 15.1C22.9667 15.556 22.0613 15.9934 21.3333 15.9934M27.4293 21.3334C27.4293 20.7694 26.8693 19.9254 26.3053 19.2174C25.5831 18.2997 24.7059 17.5154 23.7133 16.9C22.9667 16.444 22.0613 16.0067 21.3333 16.0067" stroke="url(#paint0_linear_139_598)"/>
</g>
<defs>
<linearGradient id="paint0_linear_139_598" x1="16" y1="0.666685" x2="25.2318" y2="28.6386" gradientUnits="userSpaceOnUse">
<stop offset="0.385417" stop-color="#E5D193"/>
<stop offset="1" stop-color="#EBE1C2"/>
</linearGradient>
<clipPath id="clip0_139_598">
<rect width="32" height="32" fill="white"/>
</clipPath>
</defs>
</svg>
