<svg width="48" height="48" viewBox="0 0 48 48" fill="none" xmlns="http://www.w3.org/2000/svg">
<path d="M32 8L24.758 15.242C24.2007 15.7994 23.5391 16.2416 22.8109 16.5432C22.0827 16.8449 21.3022 17.0001 20.514 17H13L8.758 21.242C8.20057 21.7993 7.7584 22.4609 7.45676 23.1891C7.15511 23.9173 6.99991 24.6978 7 25.486V32M13 22V31.112C13.0007 31.881 13.2292 32.6326 13.6568 33.2717C14.0844 33.9109 14.6919 34.409 15.4025 34.7031C16.113 34.9971 16.8948 35.074 17.649 34.9239C18.4033 34.7739 19.0961 34.4036 19.64 33.86L26.5 27H27L27.592 28.184C29.1434 31.2865 31.7794 33.7117 35 35M24 35.996C23.9622 35.9229 23.9248 35.8496 23.888 35.776L23.5 35L24 35.996ZM24 35.996C26.342 40.5467 30.2481 44.0991 35 46M39 48V16L34 11M24 1L29 6M21 17V27M15.39 13C15.39 13 11.77 11.886 11.12 9.448C10.8781 8.54502 11.0037 7.583 11.4691 6.77232C11.9346 5.96165 12.7022 5.36828 13.604 5.122C14.05 5.00266 14.5152 4.97274 14.9728 5.03396C15.4304 5.09518 15.8714 5.24633 16.2703 5.4787C16.6693 5.71108 17.0183 6.02009 17.2973 6.38793C17.5763 6.75577 17.7798 7.17518 17.896 7.622C18.544 10.06 15.972 12.842 15.972 12.842L15.39 13Z" stroke="url(#paint0_linear_140_895)"/>
<defs>
<linearGradient id="paint0_linear_140_895" x1="23" y1="0.999997" x2="42.1475" y2="38.8544" gradientUnits="userSpaceOnUse">
<stop offset="0.385417" stop-color="#E5D193"/>
<stop offset="1" stop-color="#EBE1C2"/>
</linearGradient>
</defs>
</svg>
