<svg width="32" height="32" viewBox="0 0 32 32" fill="none" xmlns="http://www.w3.org/2000/svg">
<g clip-path="url(#clip0_139_781)">
<path d="M2 24.6667V18.6667L2.90133 18.4213C11.4772 16.0823 20.5228 16.0823 29.0987 18.4213L30 18.6667V24.6667M2 24.6667C2 24.6667 2 28.6667 0 28.6667M2 24.6667H30M30 24.6667C30 24.6667 30 28.6667 32 28.6667M4.66667 14.6667C4.66667 12.0147 4.27067 9.37867 3.49067 6.844L3.33333 6.33333V6H28.6667V6.33333L28.5093 6.844C27.7296 9.37837 27.3332 12.0151 27.3333 14.6667M16 10H8.66667V14.6667M16 10V14.6667M16 10H23.3333V14.6667" stroke="url(#paint0_linear_139_781)"/>
</g>
<defs>
<linearGradient id="paint0_linear_139_781" x1="16" y1="6" x2="21.2787" y2="27.6392" gradientUnits="userSpaceOnUse">
<stop offset="0.385417" stop-color="#E5D193"/>
<stop offset="1" stop-color="#EBE1C2"/>
</linearGradient>
<clipPath id="clip0_139_781">
<rect width="32" height="32" fill="white"/>
</clipPath>
</defs>
</svg>
