<svg width="48" height="48" viewBox="0 0 48 48" fill="none" xmlns="http://www.w3.org/2000/svg">
<path d="M24.33 15.67L26.93 13.07C28.2207 11.7367 28.9356 9.94949 28.9206 8.09383C28.9055 6.23816 28.1617 4.46278 26.8495 3.15058C25.5373 1.83839 23.7619 1.09454 21.9062 1.07947C20.0506 1.06441 18.2633 1.77933 16.93 3.07005L14.33 5.67005C13.456 6.54405 12.39 7.20405 11.214 7.59605L7 9.00005V9.50005L20.5 23H21L22.406 18.786C22.796 17.612 23.456 16.546 24.33 15.67ZM24.33 15.67L24.54 16C26.9203 20.138 30.7394 23.2559 35.27 24.76M35.27 24.76C35.55 24.1438 36.0282 23.6404 36.6305 23.3316C37.2328 23.0228 37.9218 22.9267 38.5856 23.059C39.2494 23.1913 39.849 23.5442 40.2868 24.0603C40.7247 24.5764 40.9752 25.2255 40.9976 25.902C41.02 26.5784 40.8129 27.2426 40.4101 27.7865C40.0073 28.3305 39.4324 28.7222 38.7788 28.8981C38.1252 29.074 37.4313 29.0237 36.8099 28.7553C36.1885 28.487 35.6761 28.0164 35.356 27.42C35.1366 27.0137 35.0145 26.5619 34.9993 26.1004C34.984 25.6388 35.078 25.18 35.27 24.76ZM13 21C12.7374 21.2627 12.4256 21.471 12.0824 21.6132C11.7392 21.7553 11.3714 21.8285 11 21.8285C10.2499 21.8285 9.53043 21.5305 9 21C8.73736 20.7374 8.52902 20.4256 8.38687 20.0824C8.24473 19.7393 8.17157 19.3715 8.17157 19C8.17157 18.2499 8.46957 17.5305 9 17M26.928 3.07205L29.2 0.800049M24 41C24 39.68 24.226 38.356 24.83 37.18C27.0884 32.7944 30.8142 29.3404 35.358 27.42M24 41C35 41 41 45 41 45V47H7V45C7 45 13 41 24 41Z" stroke="url(#paint0_linear_140_916)"/>
<defs>
<linearGradient id="paint0_linear_140_916" x1="24" y1="0.800046" x2="41.9395" y2="39.1354" gradientUnits="userSpaceOnUse">
<stop offset="0.385417" stop-color="#E5D193"/>
<stop offset="1" stop-color="#EBE1C2"/>
</linearGradient>
</defs>
</svg>
