<svg width="48" height="48" viewBox="0 0 48 48" fill="none" xmlns="http://www.w3.org/2000/svg">
<path d="M23.522 3H24.478L25.716 7.486C26.6481 10.8606 28.6614 13.8363 31.447 15.9569C34.2327 18.0775 37.637 19.2259 41.138 19.226H45V20L41.688 22.286C38.8849 24.2202 36.7721 26.9984 35.657 30.2163C34.5419 33.4343 34.4827 36.9241 35.488 40.178L36.978 45H36L34.192 43.506C31.3242 41.1362 27.7202 39.8398 24 39.8398C20.2798 39.8398 16.6758 41.1362 13.808 43.506L12 45H11.02L12.512 40.18C13.5178 36.9258 13.4588 33.4356 12.3437 30.2172C11.2286 26.9989 9.1155 24.2203 6.312 22.286L3 20V19.228H6.86C10.3616 19.2282 13.7665 18.0797 16.5527 15.9587C19.3388 13.8377 21.3521 10.8613 22.284 7.486L23.524 3H23.522Z" stroke="url(#paint0_linear_140_918)"/>
<defs>
<linearGradient id="paint0_linear_140_918" x1="24" y1="3" x2="37.0791" y2="40.9779" gradientUnits="userSpaceOnUse">
<stop offset="0.385417" stop-color="#E5D193"/>
<stop offset="1" stop-color="#EBE1C2"/>
</linearGradient>
</defs>
</svg>
