<svg width="48" height="48" viewBox="0 0 48 48" fill="none" xmlns="http://www.w3.org/2000/svg">
<g clip-path="url(#clip0_140_871)">
<path d="M45 42V19.25M45 19.25L36.724 21.32M45 19.25V9.884C45 9.884 42.6 7.818 38.288 5.948M3 42V19.25M3 19.25V9.884C3 9.884 5.4 7.82 9.712 5.948M3 19.25L11.276 21.32M24 3V11M24 3C18.122 3 13.268 4.406 9.712 5.948M24 3C29.878 3 34.732 4.406 38.288 5.948M24 11C20.9807 10.9951 18.0546 12.0457 15.728 13.97M24 11C27.142 11 30.024 12.114 32.272 13.97M9.712 5.948L15.728 13.97M38.288 5.948L32.272 13.97M0 45H48M11 42V24C11 23.08 11.096 22.184 11.276 21.32M11.276 21.32C11.8836 18.4361 13.4535 15.8443 15.728 13.97M37 42V24C37 23.08 36.904 22.184 36.724 21.32M36.724 21.32C36.1165 18.436 34.5466 15.8442 32.272 13.97M45 33H37M3 33H11" stroke="url(#paint0_linear_140_871)"/>
</g>
<defs>
<linearGradient id="paint0_linear_140_871" x1="24" y1="3" x2="35.7358" y2="41.9457" gradientUnits="userSpaceOnUse">
<stop offset="0.385417" stop-color="#E5D193"/>
<stop offset="1" stop-color="#EBE1C2"/>
</linearGradient>
<clipPath id="clip0_140_871">
<rect width="48" height="48" fill="white"/>
</clipPath>
</defs>
</svg>
