<svg width="32" height="32" viewBox="0 0 32 32" fill="none" xmlns="http://www.w3.org/2000/svg">
<g clip-path="url(#clip0_139_844)">
<path d="M17.6367 6.36262L21.6767 2.32262C22.4677 1.53137 23.4756 0.99249 24.5729 0.774152C25.6702 0.555814 26.8077 0.667824 27.8413 1.09601C28.8749 1.5242 29.7584 2.24933 30.3799 3.17968C31.0013 4.11002 31.3329 5.20379 31.3327 6.32262V31.9999M7.73668 10.6053L5.85268 12.4906M5.38202 15.7906L3.49268 17.6759M2.55002 12.9626L0.666016 14.8479M8.20868 18.6199L6.32335 20.5053M11.0367 21.4479L9.15135 23.3333M13.394 16.2626L11.5087 18.1466M10.566 13.4319L8.67935 15.3199M14.3367 3.06262L14.13 3.26928C12.7447 4.65463 10.8991 5.48346 8.94335 5.59862L7.97268 5.65595L7.73668 5.89195L18.1087 16.2626L18.3433 16.0266L18.4007 15.0559C18.5158 13.1002 19.3447 11.2546 20.73 9.86928L20.9367 9.66262L14.3367 3.06262Z" stroke="url(#paint0_linear_139_844)"/>
</g>
<defs>
<linearGradient id="paint0_linear_139_844" x1="15.9994" y1="0.665403" x2="25.9233" y2="28.8675" gradientUnits="userSpaceOnUse">
<stop offset="0.385417" stop-color="#E5D193"/>
<stop offset="1" stop-color="#EBE1C2"/>
</linearGradient>
<clipPath id="clip0_139_844">
<rect width="32" height="32" fill="white"/>
</clipPath>
</defs>
</svg>
