<svg width="32" height="32" viewBox="0 0 32 32" fill="none" xmlns="http://www.w3.org/2000/svg">
<path d="M8.66602 14V8.00002C8.66602 6.0551 9.43863 4.18984 10.8139 2.81457C12.1892 1.4393 14.0544 0.666687 15.9993 0.666687C17.9443 0.666687 19.8095 1.4393 21.1848 2.81457C22.5601 4.18984 23.3327 6.0551 23.3327 8.00002V14M15.9993 20V25.3334M27.3327 31.3334H4.66602V31L4.76602 30.564C5.96518 25.3674 5.96518 19.966 4.76602 14.7694L4.66602 14.3334V14H27.3327V14.3334L27.2327 14.7694C26.0334 19.9659 26.0334 25.3674 27.2327 30.564L27.3327 31V31.3334Z" stroke="url(#paint0_linear_139_738)"/>
<defs>
<linearGradient id="paint0_linear_139_738" x1="15.9994" y1="0.666685" x2="27.8741" y2="26.1525" gradientUnits="userSpaceOnUse">
<stop offset="0.385417" stop-color="#E5D193"/>
<stop offset="1" stop-color="#EBE1C2"/>
</linearGradient>
</defs>
</svg>
