<svg width="32" height="32" viewBox="0 0 32 32" fill="none" xmlns="http://www.w3.org/2000/svg">
<g clip-path="url(#clip0_320_3112)">
<path d="M21.3327 5.33332L16.5047 10.1613C16.1332 10.5329 15.6921 10.8277 15.2066 11.0288C14.7212 11.2299 14.2008 11.3334 13.6753 11.3333H8.66602L5.83802 14.1613C5.4664 14.5328 5.17162 14.9739 4.97052 15.4594C4.76943 15.9449 4.66595 16.4652 4.66602 16.9907V21.3333M8.66602 14.6667V20.7413C8.66645 21.254 8.81883 21.755 9.1039 22.1812C9.38897 22.6073 9.79395 22.9393 10.2677 23.1354C10.7414 23.3314 11.2626 23.3827 11.7654 23.2826C12.2682 23.1826 12.7301 22.9358 13.0927 22.5733L17.666 18H17.9993L18.394 18.7893C19.4283 20.8576 21.1856 22.4745 23.3327 23.3333M15.9993 23.9973C15.9741 23.9486 15.9492 23.8997 15.9247 23.8507L15.666 23.3333L15.9993 23.9973ZM15.9993 23.9973C17.5607 27.0311 20.1647 29.3994 23.3327 30.6667M25.9993 32V10.6667L22.666 7.33332M15.9993 0.666656L19.3327 3.99999M13.9993 11.3333V18M10.2593 8.66666C10.2593 8.66666 7.84602 7.92399 7.41268 6.29866C7.25143 5.69667 7.33512 5.05532 7.64545 4.51487C7.95578 3.97442 8.46749 3.57885 9.06868 3.41466C9.36601 3.3351 9.67614 3.31515 9.98122 3.35596C10.2863 3.39677 10.5803 3.49754 10.8462 3.65246C11.1122 3.80737 11.3449 4.01338 11.5309 4.25861C11.7169 4.50384 11.8525 4.78344 11.93 5.08132C12.362 6.70666 10.6473 8.56132 10.6473 8.56132L10.2593 8.66666Z" stroke="url(#paint0_linear_320_3112)"/>
</g>
<defs>
<linearGradient id="paint0_linear_320_3112" x1="15.3327" y1="0.666655" x2="28.0977" y2="25.9029" gradientUnits="userSpaceOnUse">
<stop offset="0.385417" stop-color="#E5D193"/>
<stop offset="1" stop-color="#EBE1C2"/>
</linearGradient>
<clipPath id="clip0_320_3112">
<rect width="32" height="32" fill="white"/>
</clipPath>
</defs>
</svg>
