<svg width="32" height="32" viewBox="0 0 32 32" fill="none" xmlns="http://www.w3.org/2000/svg">
<path d="M16 22.8372L16 2M22.5217 15.6744C21.7691 15.6744 20.4843 16.5405 19.5296 17.2737C18.6889 17.9095 17.9568 18.6769 17.3617 19.5462C16.7239 20.493 16 21.7953 16 22.8242C16 21.7953 15.2748 20.493 14.6383 19.5462C14.0432 18.6769 13.3111 17.9095 12.4704 17.2737C11.5157 16.5405 10.2309 15.6744 9.47826 15.6744M22.5217 11.7674L28.3913 11.7674V12.1959C28.3912 17.958 29.2237 23.69 30.863 29.2147L31 29.6744V30L0.999999 30V29.6744L1.13695 29.2147C2.77636 23.69 3.60884 17.958 3.60869 12.1959V11.7674L9.47826 11.7674" stroke="url(#paint0_linear_320_3094)"/>
<defs>
<linearGradient id="paint0_linear_320_3094" x1="31" y1="16" x2="4.29194" y2="25.8549" gradientUnits="userSpaceOnUse">
<stop offset="0.385417" stop-color="#E5D193"/>
<stop offset="1" stop-color="#EBE1C2"/>
</linearGradient>
</defs>
</svg>
