<svg width="32" height="32" viewBox="0 0 32 32" fill="none" xmlns="http://www.w3.org/2000/svg">
<path d="M10.0002 24V15.2448L7.36397 12.7608L5 11.3823V22.4549C5 23.3098 5.67249 24 6.5001 24H10.0002Z" fill="url(#paint0_linear_320_3068)"/>
<path d="M22 23.9999H25.5001C26.3302 23.9999 27.0002 23.3072 27.0002 22.4549V11.3823L24.3226 12.9612L22 15.2447V23.9999Z" fill="url(#paint1_linear_320_3068)"/>
<path d="M9.99934 15.2447L9.64062 11.8238L9.99934 8.54965L15.9996 13.1847L21.9998 8.54965L22.401 11.647L21.9998 15.2447L15.9996 19.8798L9.99934 15.2447Z" fill="url(#paint2_linear_320_3068)"/>
<path d="M22 8.54937V15.2444L27.0002 11.3819V9.32186C27.0002 7.41122 24.8826 6.32202 23.4001 7.46787L22 8.54937Z" fill="url(#paint3_linear_320_3068)"/>
<path d="M5 11.3819L7.29969 13.1585L10.0002 15.2445V8.54941L8.60006 7.46791C7.115 6.32197 5 7.41126 5 9.32181V11.3819V11.3819Z" fill="url(#paint4_linear_320_3068)"/>
<defs>
<linearGradient id="paint0_linear_320_3068" x1="7.5001" y1="11.3823" x2="13.819" y2="18.6535" gradientUnits="userSpaceOnUse">
<stop offset="0.385417" stop-color="#E5D193"/>
<stop offset="1" stop-color="#EBE1C2"/>
</linearGradient>
<linearGradient id="paint1_linear_320_3068" x1="24.5001" y1="11.3823" x2="30.819" y2="18.6534" gradientUnits="userSpaceOnUse">
<stop offset="0.385417" stop-color="#E5D193"/>
<stop offset="1" stop-color="#EBE1C2"/>
</linearGradient>
<linearGradient id="paint2_linear_320_3068" x1="16.0208" y1="8.54965" x2="19.2255" y2="19.0299" gradientUnits="userSpaceOnUse">
<stop offset="0.385417" stop-color="#E5D193"/>
<stop offset="1" stop-color="#EBE1C2"/>
</linearGradient>
<linearGradient id="paint3_linear_320_3068" x1="24.5001" y1="7" x2="28.0808" y2="13.3059" gradientUnits="userSpaceOnUse">
<stop offset="0.385417" stop-color="#E5D193"/>
<stop offset="1" stop-color="#EBE1C2"/>
</linearGradient>
<linearGradient id="paint4_linear_320_3068" x1="7.5001" y1="7" x2="11.0808" y2="13.3059" gradientUnits="userSpaceOnUse">
<stop offset="0.385417" stop-color="#E5D193"/>
<stop offset="1" stop-color="#EBE1C2"/>
</linearGradient>
</defs>
</svg>
