<svg width="32" height="32" viewBox="0 0 32 32" fill="none" xmlns="http://www.w3.org/2000/svg">
<path fill-rule="evenodd" clip-rule="evenodd" d="M11.0693 5H20.9308C24.2693 5 27 7.73075 27 11.0693V20.9308C27 24.2693 24.2693 27 20.9308 27H11.0693C7.73075 27 5 24.2693 5 20.9308V11.0693C5 7.73075 7.73075 5 11.0693 5ZM21.8795 8.7455C22.6385 8.7455 23.2545 9.3615 23.2545 10.1205C23.2545 10.8795 22.6385 11.4955 21.8795 11.4955C21.1205 11.4955 20.5045 10.8795 20.5045 10.1205C20.5045 9.3615 21.1205 8.7455 21.8795 8.7455ZM16 10.3103C19.1433 10.3103 21.6898 12.8568 21.6898 16C21.6898 19.1405 19.1433 21.6898 16 21.6898C12.8568 21.6898 10.3103 19.1405 10.3103 16C10.3103 12.8568 12.8568 10.3103 16 10.3103ZM16 12.3948C17.991 12.3948 19.6025 14.009 19.6025 16C19.6025 17.9883 17.991 19.6025 16 19.6025C14.009 19.6025 12.3975 17.9883 12.3975 16C12.3975 14.009 14.009 12.3948 16 12.3948ZM11.116 7.03775H20.884C23.1253 7.03775 24.9622 8.872 24.9622 11.116V20.884C24.9622 23.1253 23.1253 24.9595 20.884 24.9595H11.116C8.87475 24.9595 7.03775 23.1253 7.03775 20.884V11.116C7.03775 8.872 8.87475 7.03775 11.116 7.03775Z" fill="url(#paint0_linear_320_3064)"/>
<defs>
<linearGradient id="paint0_linear_320_3064" x1="16" y1="5" x2="22.851" y2="24.8932" gradientUnits="userSpaceOnUse">
<stop offset="0.385417" stop-color="#E5D193"/>
<stop offset="1" stop-color="#EBE1C2"/>
</linearGradient>
</defs>
</svg>
