<svg width="32" height="32" viewBox="0 0 32 32" fill="none" xmlns="http://www.w3.org/2000/svg">
<path d="M27.8307 4.18362C27.776 4.12688 27.7107 4.08146 27.6384 4.04996C27.5662 4.01846 27.4884 4.0015 27.4096 4.00006C27.3308 3.99861 27.2525 4.01269 27.1792 4.04151C27.1058 4.07033 27.0388 4.11332 26.9821 4.16802L24.7134 6.4367C24.7014 6.4475 24.687 6.4511 24.6774 6.46311C24.6666 6.47271 24.663 6.48711 24.6534 6.49672L12.7566 18.3947C11.808 17.6238 10.624 17.201 9.40162 17.1967C8.33328 17.1967 7.28893 17.5135 6.40064 18.1071C5.51235 18.7006 4.82001 19.5442 4.41118 20.5312C4.00234 21.5182 3.89537 22.6043 4.10379 23.6521C4.31222 24.6999 4.82667 25.6624 5.5821 26.4179C6.33753 27.1733 7.3 27.6877 8.34782 27.8962C9.39563 28.1046 10.4817 27.9976 11.4687 27.5888C12.4557 27.1799 13.2994 26.4876 13.8929 25.5993C14.4864 24.711 14.8032 23.6667 14.8032 22.5983C14.7989 21.376 14.3761 20.192 13.6053 19.2433L21.7161 11.1325L24.6846 14.1022C24.7402 14.1582 24.8063 14.2026 24.8791 14.233C24.9519 14.2633 25.03 14.2789 25.1089 14.2789C25.1878 14.2789 25.2659 14.2633 25.3387 14.233C25.4116 14.2026 25.4777 14.1582 25.5332 14.1022C25.6458 13.9896 25.709 13.837 25.709 13.6779C25.709 13.5187 25.6458 13.3661 25.5332 13.2535L22.5648 10.2826L25.1107 7.73669L26.3831 9.00787C26.4386 9.06369 26.5047 9.10798 26.5774 9.13821C26.6501 9.16843 26.7281 9.18399 26.8068 9.18399C26.8856 9.18399 26.9635 9.16843 27.0363 9.13821C27.109 9.10798 27.175 9.06369 27.2306 9.00787C27.3431 8.89532 27.4063 8.74269 27.4063 8.58354C27.4063 8.4244 27.3431 8.27176 27.2306 8.15921L25.9594 6.88683L27.8319 5.01547C27.9398 4.90362 28 4.75431 28 4.59895C28 4.44359 27.9398 4.29428 27.8319 4.18242L27.8307 4.18362ZM9.40162 26.7996C8.28738 26.7996 7.21877 26.357 6.43088 25.5691C5.64299 24.7812 5.20036 23.7126 5.20036 22.5983C5.20036 21.4841 5.64299 20.4155 6.43088 19.6276C7.21877 18.8397 8.28738 18.3971 9.40162 18.3971C10.5159 18.3971 11.5845 18.8397 12.3724 19.6276C13.1602 20.4155 13.6029 21.4841 13.6029 22.5983C13.6029 23.7126 13.1602 24.7812 12.3724 25.5691C11.5845 26.357 10.5159 26.7996 9.40162 26.7996Z" fill="url(#paint0_linear_320_3126)"/>
<defs>
<linearGradient id="paint0_linear_320_3126" x1="16" y1="3.99995" x2="23.4738" y2="25.7016" gradientUnits="userSpaceOnUse">
<stop offset="0.385417" stop-color="#E5D193"/>
<stop offset="1" stop-color="#EBE1C2"/>
</linearGradient>
</defs>
</svg>
