<svg width="32" height="32" viewBox="0 0 32 32" fill="none" xmlns="http://www.w3.org/2000/svg">
<g clip-path="url(#clip0_320_3090)">
<path d="M16 31.8933C15.9852 30.2316 15.627 28.5908 14.9478 27.0741C14.2687 25.5575 13.2832 24.1976 12.0533 23.08L8.63067 19.968C7.48652 18.9227 6.57275 17.6505 5.94764 16.2325C5.32253 14.8145 4.99979 13.2817 5 11.732C5 5.65599 9.92533 0.666656 16 0.666656C22.0747 0.666656 27 5.65466 27 11.7307C27 14.8547 25.6813 17.864 23.3693 19.9667L19.9453 23.0787C18.7155 24.1963 17.7301 25.5562 17.0509 27.0729C16.3718 28.5895 16.0135 30.2303 15.9987 31.892L16 31.8933ZM16 31.8933V32V31.924M16 15.3333C15.1159 15.3333 14.2681 14.9821 13.643 14.357C13.0179 13.7319 12.6667 12.884 12.6667 12C12.6667 11.1159 13.0179 10.2681 13.643 9.64297C14.2681 9.01785 15.1159 8.66666 16 8.66666C16.8841 8.66666 17.7319 9.01785 18.357 9.64297C18.9821 10.2681 19.3333 11.1159 19.3333 12C19.3333 12.884 18.9821 13.7319 18.357 14.357C17.7319 14.9821 16.8841 15.3333 16 15.3333Z" stroke="url(#paint0_linear_320_3090)"/>
</g>
<defs>
<linearGradient id="paint0_linear_320_3090" x1="16" y1="0.666655" x2="28.5305" y2="26.2136" gradientUnits="userSpaceOnUse">
<stop offset="0.385417" stop-color="#E5D193"/>
<stop offset="1" stop-color="#EBE1C2"/>
</linearGradient>
<clipPath id="clip0_320_3090">
<rect width="32" height="32" fill="white"/>
</clipPath>
</defs>
</svg>
