<svg width="32" height="32" viewBox="0 0 32 32" fill="none" xmlns="http://www.w3.org/2000/svg">
<path d="M26.3161 7.936C27.1201 7.48 27.6614 6.62489 27.6614 5.644C27.6614 4.18489 26.4636 3.00178 24.9859 3.00178C24.5164 3.00047 24.0547 3.12249 23.6472 3.35562C23.2397 3.58876 22.9005 3.92484 22.6637 4.33022C22.3705 3.82309 21.9488 3.40225 21.441 3.11017C20.9332 2.81809 20.3574 2.66511 19.7717 2.66667C17.933 2.66667 16.4432 4.13822 16.4432 5.95333C16.4432 7.76844 17.933 9.24 19.7717 9.24C19.929 9.24 20.0832 9.22889 20.2352 9.208L19.7645 9.67289L18.7557 9.68978L18.7383 10.6858L18.4494 10.9711L18.3721 10.8942C18.261 10.7858 18.112 10.7251 17.9568 10.7251C17.8016 10.7251 17.6525 10.7858 17.5414 10.8942L17.4894 10.9453C17.4352 10.999 17.3921 11.0629 17.3627 11.1333C17.3333 11.2037 17.3181 11.2792 17.3181 11.3556C17.3181 11.4319 17.3333 11.5074 17.3627 11.5778C17.3921 11.6482 17.4352 11.7121 17.4894 11.7658L17.5677 11.8427L5.21343 24.0422L5.4561 24.2813L5.12855 24.6044C4.78188 24.4418 4.41166 24.4582 4.18677 24.68C3.87477 24.988 3.96277 25.5747 4.38277 25.9898C4.80321 26.4053 5.39699 26.492 5.70899 26.184C5.93432 25.9618 5.95032 25.5964 5.78588 25.2538L6.11299 24.9302L6.35521 25.1698L8.06232 23.4835L8.77166 24.1844L6.91388 26.0182L7.69877 26.7929L8.18321 26.3147L8.88677 27.0093L8.40232 27.4875L8.79521 27.8751L8.82899 27.9093L10.2717 29.3333L11.609 28.012L10.1672 26.5884L11.1019 25.6658L12.509 27.0555L13.501 26.0755L12.0939 24.6858L13.0281 23.7631L14.5045 25.2213L15.8423 23.9L14.3659 22.4418L13.9397 22.0204L13.4543 22.4987L12.7512 21.804L13.2357 21.3258L12.4508 20.5511L10.5939 22.3849L9.88454 21.6849L18.7094 12.9702L18.7868 13.0476C18.8978 13.156 19.0469 13.2166 19.2021 13.2166C19.3573 13.2166 19.5064 13.156 19.6174 13.0476L19.6694 12.9964C19.7237 12.9428 19.7668 12.8789 19.7962 12.8085C19.8256 12.7381 19.8407 12.6625 19.8407 12.5862C19.8407 12.5099 19.8256 12.4344 19.7962 12.3639C19.7668 12.2935 19.7237 12.2296 19.6694 12.176L19.5912 12.0987L19.8801 11.8138L20.889 11.7969L20.9054 10.8009L21.377 10.3356C21.355 10.4873 21.344 10.6404 21.3441 10.7938C21.3441 12.6089 22.8348 14.0804 24.6721 14.0804C26.5094 14.0804 28.0001 12.6084 28.0001 10.7933C28.0001 9.56844 27.3223 8.50178 26.3161 7.936ZM24.6761 12.984C24.3846 12.9841 24.0959 12.9267 23.8265 12.8151C23.5572 12.7036 23.3125 12.54 23.1063 12.3339C22.9002 12.1277 22.7367 11.883 22.6252 11.6136C22.5137 11.3442 22.4564 11.0555 22.4565 10.764C22.4566 10.3071 22.5989 9.86164 22.8636 9.48933L22.3081 8.93778L22.5374 8.71111C22.8836 8.87333 23.2543 8.85733 23.4792 8.63555C23.7908 8.32755 23.7041 7.74044 23.2832 7.32578C22.8632 6.91022 22.2694 6.824 21.957 7.132C21.7321 7.35333 21.7157 7.71955 21.8805 8.06178L21.6512 8.28844L21.0956 7.73467C20.7151 8.02151 20.2518 8.17729 19.7752 8.17867C19.3365 8.17866 18.9076 8.04863 18.5427 7.805C18.1778 7.56137 17.8933 7.21506 17.7252 6.80983C17.557 6.40459 17.5127 5.95861 17.5979 5.52822C17.6831 5.09783 17.8939 4.70233 18.2037 4.39169C18.5135 4.08105 18.9085 3.8692 19.3387 3.78291C19.7688 3.69662 20.2149 3.73975 20.6206 3.90686C21.0263 4.07396 21.3733 4.35755 21.6179 4.72179C21.8625 5.08604 21.9936 5.5146 21.9948 5.95333H23.3681C23.3508 5.86021 23.3415 5.76581 23.3401 5.67111C23.34 5.33107 23.4449 4.99929 23.6405 4.72114C23.8361 4.443 24.1128 4.23207 24.4329 4.11721C24.753 4.00235 25.1007 3.98917 25.4285 4.07946C25.7563 4.16976 26.0483 4.35912 26.2644 4.62165C26.4805 4.88419 26.6102 5.20707 26.6359 5.54615C26.6615 5.88522 26.5817 6.22393 26.4075 6.51595C26.2333 6.80797 25.9731 7.03903 25.6625 7.17755C25.352 7.31606 25.0062 7.35526 24.6725 7.28978V8.54489L24.6761 8.54444C24.9676 8.54439 25.2562 8.60176 25.5256 8.71328C25.7949 8.8248 26.0396 8.98829 26.2457 9.19441C26.4518 9.40052 26.6153 9.64523 26.7268 9.91454C26.8383 10.1839 26.8957 10.4725 26.8956 10.764C26.8958 11.0555 26.8385 11.3443 26.7271 11.6137C26.6156 11.8831 26.4521 12.1278 26.246 12.334C26.0398 12.5402 25.7951 12.7037 25.5257 12.8152C25.2564 12.9268 24.9676 12.9841 24.6761 12.984Z" fill="url(#paint0_linear_320_3128)"/>
<defs>
<linearGradient id="paint0_linear_320_3128" x1="16" y1="2.66665" x2="25.003" y2="26.1945" gradientUnits="userSpaceOnUse">
<stop offset="0.385417" stop-color="#E5D193"/>
<stop offset="1" stop-color="#EBE1C2"/>
</linearGradient>
</defs>
</svg>
