<svg width="32" height="32" viewBox="0 0 32 32" fill="none" xmlns="http://www.w3.org/2000/svg">
<g clip-path="url(#clip0_320_3114)">
<path d="M17.6367 6.36268L21.6767 2.32268C22.4677 1.53143 23.4756 0.992551 24.5729 0.774213C25.6702 0.555875 26.8077 0.667885 27.8413 1.09607C28.8749 1.52426 29.7584 2.24939 30.3799 3.17974C31.0013 4.11009 31.3329 5.20385 31.3327 6.32268V32M7.73668 10.6053L5.85268 12.4907M5.38202 15.7907L3.49268 17.676M2.55002 12.9627L0.666016 14.848M8.20868 18.62L6.32335 20.5053M11.0367 21.448L9.15135 23.3333M13.394 16.2627L11.5087 18.1467M10.566 13.432L8.67935 15.32M14.3367 3.06268L14.13 3.26934C12.7447 4.65469 10.8991 5.48352 8.94335 5.59868L7.97268 5.65601L7.73668 5.89201L18.1087 16.2627L18.3433 16.0267L18.4007 15.056C18.5158 13.1002 19.3447 11.2547 20.73 9.86934L20.9367 9.66268L14.3367 3.06268Z" stroke="url(#paint0_linear_320_3114)"/>
</g>
<defs>
<linearGradient id="paint0_linear_320_3114" x1="15.9994" y1="0.665464" x2="25.9233" y2="28.8676" gradientUnits="userSpaceOnUse">
<stop offset="0.385417" stop-color="#E5D193"/>
<stop offset="1" stop-color="#EBE1C2"/>
</linearGradient>
<clipPath id="clip0_320_3114">
<rect width="32" height="32" fill="white"/>
</clipPath>
</defs>
</svg>
