<svg width="32" height="32" viewBox="0 0 32 32" fill="none" xmlns="http://www.w3.org/2000/svg">
<path d="M15.6813 2H16.3187L17.144 4.99067C17.7654 7.2404 19.1076 9.22422 20.9647 10.6379C22.8218 12.0517 25.0914 12.8173 27.4253 12.8173H30V13.3333L27.792 14.8573C25.9233 16.1468 24.5147 17.9989 23.7713 20.1442C23.0279 22.2895 22.9885 24.6161 23.6587 26.7853L24.652 30H24L22.7947 29.004C20.8828 27.4241 18.4802 26.5599 16 26.5599C13.5198 26.5599 11.1172 27.4241 9.20533 29.004L8 30H7.34667L8.34133 26.7867C9.01184 24.6172 8.97253 22.2904 8.22912 20.1448C7.48571 17.9992 6.077 16.1469 4.208 14.8573L2 13.3333V12.8187H4.57333C6.90772 12.8188 9.1777 12.0532 11.0351 10.6392C12.8925 9.22515 14.2348 7.24087 14.856 4.99067L15.6827 2H15.6813Z" stroke="url(#paint0_linear_320_3106)"/>
<defs>
<linearGradient id="paint0_linear_320_3106" x1="16" y1="2" x2="24.7194" y2="27.3186" gradientUnits="userSpaceOnUse">
<stop offset="0.385417" stop-color="#E5D193"/>
<stop offset="1" stop-color="#EBE1C2"/>
</linearGradient>
</defs>
</svg>
