<svg aria-hidden="true" style="position: absolute; width: 0; height: 0; overflow: hidden;" version="1.1" xmlns="http://www.w3.org/2000/svg" xmlns:xlink="http://www.w3.org/1999/xlink">
<defs>
<symbol id="icon-arrow-left" viewBox="0 0 32 32">
<path d="M5.147 16.627c0.667 0.32 1.293 0.653 1.853 0.973 2.573 1.493 4.813 3.44 6.693 5.667 1.12 1.347 2.973 3.707 2.973 5.44v0.627h-1.333v-0.627c0-1.32-1.8-3.6-2.68-4.653-1.787-2.107-3.907-3.96-6.347-5.373-1.533-0.88-3.84-2.040-5.64-2.040h-0.667v-1.28h0.667c1.8 0 4.107-1.16 5.64-2.040 2.44-1.413 4.56-3.267 6.347-5.373 0.88-1.053 2.68-3.333 2.68-4.653v-0.627h1.333v0.627c0 1.733-1.853 4.093-2.973 5.44-1.88 2.227-4.12 4.173-6.693 5.667-0.56 0.32-1.187 0.653-1.853 0.973h26.853v1.253h-26.853z"></path>
</symbol>
<symbol id="icon-arrow-right-thin" viewBox="0 0 32 32">
<path d="M31.333 15.373h0.667v1.253h-0.667c-1.147 0-2.667 0.787-3.627 1.36-1.627 0.96-3.013 2.227-4.187 3.64-0.56 0.693-1.747 2.24-1.747 3.080v0.627h-1.333v-0.627c0-1.227 1.24-2.867 2.027-3.84 1.267-1.533 2.773-2.893 4.52-3.933 0.173-0.107 0.36-0.2 0.547-0.307h-27.533v-1.253h27.533c-0.187-0.107-0.373-0.2-0.547-0.307-1.747-1.040-3.253-2.4-4.52-3.947-0.787-0.96-2.027-2.6-2.027-3.827v-0.627h1.333v0.627c0 0.84 1.187 2.387 1.747 3.080 1.173 1.413 2.56 2.68 4.187 3.64 0.96 0.573 2.48 1.36 3.627 1.36z"></path>
</symbol>
<symbol id="icon-arrow-right" viewBox="0 0 32 32">
<path d="M32 15.387v1.253h-0.667c-1.8 0-4.107 1.16-5.64 2.040-2.44 1.413-4.56 3.267-6.347 5.373-0.88 1.053-2.68 3.333-2.68 4.653v0.627h-1.333v-0.627c0-1.733 1.853-4.093 2.973-5.44 1.88-2.227 4.12-4.173 6.693-5.667 0.56-0.32 1.187-0.653 1.853-0.973h-26.853v-1.253h26.853c-0.667-0.32-1.293-0.653-1.853-0.973-2.573-1.493-4.813-3.44-6.693-5.667-1.12-1.347-2.973-3.707-2.973-5.44v-0.627h1.333v0.627c0 1.32 1.8 3.6 2.68 4.653 1.787 2.107 3.907 3.96 6.347 5.373 1.533 0.88 3.84 2.040 5.64 2.040h0.667v0.027z"></path>
</symbol>
<symbol id="icon-book" viewBox="0 0 32 32">
<path d="M16.667 27.987v1.347h-1.333v-1.347c0-0.907-0.347-1.787-0.987-2.44-0.613-0.64-1.453-1.013-2.347-1.013h-12l0.013-1.133c1.32-6.107 1.987-12.347 1.987-18.587v-2.147h10c1.253 0 2.44 0.507 3.307 1.4 0.267 0.28 0.507 0.587 0.693 0.92 0.187-0.333 0.427-0.64 0.693-0.92 0.867-0.893 2.053-1.4 3.307-1.4h10v2.147c0 6.24 0.667 12.48 2 18.72v1h-12c-0.893 0-1.733 0.373-2.347 1.013-0.64 0.653-0.987 1.533-0.987 2.44zM16.667 7.44v13.667h-1.333v-13.667c0-0.92-0.347-1.8-0.987-2.453-0.613-0.64-1.453-1-2.347-1h-8.667v0.827c0 6.213-0.653 12.387-1.933 18.4h10.6c1.253 0 2.44 0.52 3.307 1.413 0.267 0.28 0.507 0.587 0.693 0.907 0.187-0.32 0.427-0.627 0.693-0.907 0.867-0.893 2.053-1.413 3.307-1.413h10.587c-1.28-6.053-1.92-12.2-1.92-18.4v-0.827h-8.667c-0.893 0-1.733 0.36-2.347 1-0.64 0.653-0.987 1.533-0.987 2.453z"></path>
</symbol>
<symbol id="icon-close" viewBox="0 0 32 32">
<path d="M16 0v0c8.84 0 16 7.16 16 16v0c0 8.84-7.16 16-16 16v0c-8.84 0-16-7.16-16-16v0c0-8.84 7.16-16 16-16zM16 12.853l6.187-6.187 0.16 0.16 0.133 0.2c0.667 0.987 1.507 1.827 2.493 2.493l0.2 0.133 0.16 0.16-6.187 6.187 6.187 6.187-0.16 0.16-0.2 0.133c-0.987 0.667-1.827 1.507-2.493 2.493l-0.133 0.2-0.16 0.16-6.187-6.187-6.187 6.187-0.16-0.16-0.133-0.2c-0.667-0.987-1.507-1.827-2.493-2.493l-0.2-0.133-0.16-0.16 6.187-6.187-6.187-6.187 0.16-0.16 0.2-0.133c0.987-0.667 1.827-1.507 2.493-2.493l0.133-0.2 0.16-0.16 6.187 6.187zM9.933 8.68c-0.373 0.453-0.8 0.88-1.253 1.253l6.067 6.067-6.067 6.067c0.453 0.373 0.88 0.8 1.253 1.253l6.067-6.067 6.067 6.067c0.373-0.453 0.8-0.88 1.253-1.253l-6.067-6.067 6.067-6.067c-0.453-0.373-0.88-0.8-1.253-1.253l-6.067 6.067-6.067-6.067zM16 1.333c-8.107 0-14.667 6.56-14.667 14.667s6.56 14.667 14.667 14.667c8.107 0 14.667-6.56 14.667-14.667s-6.56-14.667-14.667-14.667z"></path>
</symbol>
<symbol id="icon-download" viewBox="0 0 32 32">
<path d="M15.333 23.48v-0.653c0-0.907-0.76-2.173-1.28-2.907-0.56-0.813-1.267-1.533-2.067-2.133-0.533-0.387-2.027-1.467-2.653-1.467h-0.667v-1.293h0.667c1.067 0 2.6 1.093 3.467 1.733 0.907 0.68 1.72 1.493 2.36 2.427 0.053 0.080 0.12 0.173 0.173 0.253v-18.107h1.333v18.107c0.053-0.080 0.12-0.173 0.173-0.253 0.64-0.933 1.453-1.747 2.36-2.427 0.867-0.64 2.4-1.733 3.467-1.733h0.667v1.293h-0.667c-0.627 0-2.12 1.080-2.653 1.467-0.8 0.6-1.507 1.32-2.067 2.133-0.52 0.733-1.28 2-1.28 2.907v0.667h-1.333v-0.013zM4 12.413c-0.027 5.733-0.88 11.453-2.547 16.947h29.093c-1.667-5.493-2.52-11.213-2.547-16.947h-6v-1.307h7.333v1.080c0 5.707 0.84 11.387 2.493 16.853l0.173 0.56v1.067h-32v-1.067l0.173-0.56c1.653-5.467 2.493-11.147 2.493-16.853v-1.080h7.333v1.307h-6z"></path>
</symbol>
<symbol id="icon-messeng" viewBox="0 0 32 32">
<path d="M32 1.333v24.12l-1.44-0.013c-4.547-0.733-9.947-0.973-14.56-0.973-2.653 0-5.293 0.52-7.76 1.507-2.453 1-4.693 2.467-6.573 4.307l-0.4 0.387h-1.267v-29.333h1.44c4.547 0.747 9.947 0.973 14.56 0.973s10.013-0.227 14.667-0.973h1.333zM7.32 15.68h9.347v1.293h-9.347v-1.293zM7.32 9.8h17.36v1.293h-17.36v-1.293zM30.667 2.64c-4.6 0.733-10 0.973-14.667 0.973-4.68 0-10.12-0.24-14.667-0.987v26.173c1.867-1.707 4.040-3.067 6.4-4.027 2.627-1.053 5.427-1.6 8.267-1.6 4.68 0 10.12 0.227 14.667 0.973v-21.507z"></path>
</symbol>
<symbol id="icon-to-top" viewBox="0 0 32 32">
<path d="M16 0v0c8.84 0 16 7.16 16 16v0c0 8.84-7.16 16-16 16v0c-8.84 0-16-7.16-16-16v0c0-8.84 7.16-16 16-16zM15.373 5.333h1.28v0.667c0 1.013 0.653 2.32 1.147 3.187l0.213 0.36c0.96 1.573 2.2 2.947 3.627 4.080 0.68 0.547 2.213 1.707 3.053 1.707h0.64v1.333h-0.64c-1.24 0-2.88-1.213-3.84-1.987-1.533-1.227-2.893-2.72-3.933-4.427l-0.227-0.373c-0.013-0.040-0.027-0.067-0.053-0.093v16.88h-1.28v-16.88c-0.093 0.16-0.187 0.32-0.28 0.467-1.040 1.707-2.4 3.2-3.933 4.427-0.427 0.347-0.867 0.68-1.333 0.987-0.68 0.44-1.613 0.973-2.467 1h-0.68v-1.333h0.667c0.533-0.013 1.347-0.507 1.8-0.8 0.427-0.28 0.827-0.587 1.227-0.907 1.427-1.133 2.667-2.507 3.627-4.080 0.573-0.947 1.36-2.427 1.36-3.547v-0.667h0.027zM16 1.333c-8.107 0-14.667 6.56-14.667 14.667s6.56 14.667 14.667 14.667c8.107 0 14.667-6.56 14.667-14.667s-6.56-14.667-14.667-14.667z"></path>
</symbol>
</defs>
</svg>
