<svg width="32" height="32" viewBox="0 0 32 32" fill="none" xmlns="http://www.w3.org/2000/svg">
<g clip-path="url(#clip0_320_3118)">
<path d="M30 28V12.8333M30 12.8333L24.4827 14.2133M30 12.8333V6.58933C30 6.58933 28.4 5.212 25.5253 3.96533M2 28V12.8333M2 12.8333V6.58933C2 6.58933 3.6 5.21333 6.47467 3.96533M2 12.8333L7.51733 14.2133M16 2V7.33333M16 2C12.0813 2 8.84533 2.93733 6.47467 3.96533M16 2C19.9187 2 23.1547 2.93733 25.5253 3.96533M16 7.33333C13.9871 7.33007 12.0364 8.03045 10.4853 9.31333M16 7.33333C18.0947 7.33333 20.016 8.076 21.5147 9.31333M6.47467 3.96533L10.4853 9.31333M25.5253 3.96533L21.5147 9.31333M0 30H32M7.33333 28V16C7.33333 15.3867 7.39733 14.7893 7.51733 14.2133M7.51733 14.2133C7.92243 12.2907 8.969 10.5629 10.4853 9.31333M24.6667 28V16C24.6667 15.3867 24.6027 14.7893 24.4827 14.2133M24.4827 14.2133C24.0777 12.2907 23.0311 10.5628 21.5147 9.31333M30 22H24.6667M2 22H7.33333" stroke="url(#paint0_linear_320_3118)"/>
</g>
<defs>
<linearGradient id="paint0_linear_320_3118" x1="16" y1="2" x2="23.8239" y2="27.9638" gradientUnits="userSpaceOnUse">
<stop offset="0.385417" stop-color="#E5D193"/>
<stop offset="1" stop-color="#EBE1C2"/>
</linearGradient>
<clipPath id="clip0_320_3118">
<rect width="32" height="32" fill="white"/>
</clipPath>
</defs>
</svg>
