<?xml version="1.0" encoding="UTF-8"?>
<!DOCTYPE svg PUBLIC "-//W3C//DTD SVG 1.1//EN" "http://www.w3.org/Graphics/SVG/1.1/DTD/svg11.dtd">
<!-- Creator: CorelDRAW 2019 (64-Bit) -->
<svg xmlns="http://www.w3.org/2000/svg" xml:space="preserve" width="240px" height="480px" version="1.1" style="shape-rendering:geometricPrecision; text-rendering:geometricPrecision; image-rendering:optimizeQuality; fill-rule:evenodd; clip-rule:evenodd"
viewBox="0 0 240 480"
 xmlns:xlink="http://www.w3.org/1999/xlink"
 xmlns:xodm="http://www.corel.com/coreldraw/odm/2003">
 <defs>
  <style type="text/css">
   <![CDATA[
    .fil0 {fill:none}
    .fil2 {fill:url(#id0)}
    .fil7 {fill:url(#id1)}
    .fil3 {fill:url(#id2)}
    .fil5 {fill:url(#id3)}
    .fil4 {fill:url(#id4)}
    .fil1 {fill:url(#id5)}
    .fil6 {fill:url(#id6)}
    .fil8 {fill:url(#id7)}
    .fil9 {fill:url(#id8)}
   ]]>
  </style>
  <linearGradient id="id0" gradientUnits="userSpaceOnUse" x1="101.8" y1="121.36" x2="138.2" y2="121.36">
   <stop offset="0" style="stop-opacity:1; stop-color:#BC7A58"/>
   <stop offset="0.0509804" style="stop-opacity:1; stop-color:#CDA354"/>
   <stop offset="0.2" style="stop-opacity:1; stop-color:#F5DF8A"/>
   <stop offset="0.4" style="stop-opacity:1; stop-color:#C5865D"/>
   <stop offset="0.65098" style="stop-opacity:1; stop-color:#ECCF83"/>
   <stop offset="0.85098" style="stop-opacity:1; stop-color:#FFEBD2"/>
   <stop offset="1" style="stop-opacity:1; stop-color:#AF7D32"/>
  </linearGradient>
  <linearGradient id="id1" gradientUnits="userSpaceOnUse" xlink:href="#id0" x1="134.01" y1="378.34" x2="240" y2="378.34">
  </linearGradient>
  <linearGradient id="id2" gradientUnits="userSpaceOnUse" xlink:href="#id0" x1="59.49" y1="430.93" x2="180.51" y2="430.93">
  </linearGradient>
  <linearGradient id="id3" gradientUnits="userSpaceOnUse" xlink:href="#id0" x1="74.55" y1="334.33" x2="165.45" y2="334.33">
  </linearGradient>
  <linearGradient id="id4" gradientUnits="userSpaceOnUse" xlink:href="#id0" x1="124.87" y1="335.89" x2="198.79" y2="335.89">
  </linearGradient>
  <linearGradient id="id5" gradientUnits="userSpaceOnUse" xlink:href="#id0" x1="135.15" y1="87.56" x2="213.94" y2="87.56">
  </linearGradient>
  <linearGradient id="id6" gradientUnits="userSpaceOnUse" xlink:href="#id0" x1="38.78" y1="345.74" x2="115.13" y2="345.74">
  </linearGradient>
  <linearGradient id="id7" gradientUnits="userSpaceOnUse" xlink:href="#id0" x1="0" y1="378.34" x2="105.99" y2="378.34">
  </linearGradient>
  <radialGradient id="id8" gradientUnits="userSpaceOnUse" gradientTransform="matrix(1.11111 -0 -0 1.11115 -13 -52)" cx="119.25" cy="471.8" r="6.64" fx="119.25" fy="471.8">
   <stop offset="0" style="stop-opacity:1; stop-color:#FFEBD2"/>
   <stop offset="0.45098" style="stop-opacity:1; stop-color:#ECCF83"/>
   <stop offset="0.8" style="stop-opacity:1; stop-color:#CDA354"/>
   <stop offset="1" style="stop-opacity:1; stop-color:#BC7A58"/>
  </radialGradient>
 </defs>
 <g id="Слой_x0020_1">
  <metadata id="CorelCorpID_0Corel-Layer"/>
  <rect class="fil0" width="240" height="480"/>
  <g id="_2363647920352">
   <path class="fil1" d="M178.19 94.85c-0.57,0.77 -1.22,1.44 -1.93,2.02l-0.02 0.02c-6,4.91 -16.21,3.15 -19.19,-5.3l-0.08 0.09 0 10.98 -21.82 0 0 21.14 78.79 0 0 -26.8 -12.12 0 0 8.68 -21.82 0 0 -12.7 -1.81 1.87zm35.75 -43.52l-78.79 0 0 21.14 21.82 0 0 9.54 2.73 -2.83 0.03 -0.03 0.01 0c5.72,-5.94 16.77,-4.58 20.06,4.08l0.2 -0.2 0 -13.58 21.82 0 0 11.64 12.12 6.47 0 -36.23z"/>
   <path class="fil2" d="M110.91 23.81l18.18 0c5,0 9.09,-4.02 9.09,-8.93 0,-4.95 0.86,-14.88 -9.09,-14.88l-18.18 0c-5,0 -9.09,4.02 -9.09,8.93 0,4.95 -0.86,14.88 9.09,14.88zm24.24 125.54l-30.3 0 0 93.37 15.15 -23.36 15.15 23.35 0 -93.36zm-1.51 -10.02l-27.28 0c-3.98,0 -3.98,5.95 0,5.95l27.28 0c3.98,0 3.98,-5.95 0,-5.95zm1.51 -102.13l-30.3 0 0 98.22 30.3 0 0 -1.56 0 -11.83 0 -20.84 0 -29.76 0 -20.83 0 -13.4zm-1.51 -9.67l-27.28 0c-3.98,0 -3.98,5.95 0,5.95l27.28 0c3.98,0 3.98,-5.95 0,-5.95z"/>
   <g>
    <path class="fil3" d="M89.08 388.29c-48.73,22.09 -34.05,78.23 20.46,85.28 -0.03,-0.27 -0.04,-0.55 -0.04,-0.83 0,-0.96 0.14,-1.89 0.39,-2.77 -21.93,-3.6 -38.37,-18.67 -38.37,-36.73 0,-19.43 19.06,-35.42 43.5,-37.35l-1.92 -2.75c-8.64,-0.59 -16.77,-2.28 -24.02,-4.85zm41.38 85.28c54.51,-7.05 69.19,-63.19 20.46,-85.28 -7.25,2.57 -15.38,4.26 -24.02,4.85l-1.92 2.75c24.44,1.93 43.5,17.92 43.5,37.35 0,18.06 -16.44,33.13 -38.37,36.73 0.25,0.88 0.39,1.81 0.39,2.77 0,0.28 -0.01,0.56 -0.04,0.83z"/>
    <path class="fil4" d="M163.35 273.61c-22.07,-7.66 -46.77,29.98 -35.78,54.54 -3.94,-15.99 5.53,-33.52 20.31,-33.52 12.89,0 22.4,13.75 21.09,28.78 11.67,-18.01 10.72,-44.13 -5.62,-49.8zm0.96 119.17l7.09 6.29c13.54,0.93 24.85,-3.88 27.1,-12.4 1.57,-5.94 -3.45,-16.93 -10,-18.46 -3.54,-0.84 -7.56,0.44 -8.19,3.87 -1.2,6.44 8.41,7.19 8.95,1.42 9.31,12.07 -4.2,21.8 -24.95,19.28zm-26.8 -17.82l-8.57 15.12c23.22,-2.12 51.67,-14.95 51.67,-37.14 0,-5.92 -2.21,-11.51 -6.15,-16.49 1.39,17.59 -14.87,32.58 -37.27,37.69l0.32 0.82z"/>
    <path class="fil5" d="M137.45 260.73c-4.46,-11.22 -10.35,-21.76 -17.45,-31.44 -7.1,9.68 -12.99,20.22 -17.45,31.44 18,35.49 19.96,76.95 5.21,114.01 3.53,6.96 7.63,13.61 12.24,19.89 4.61,-6.28 8.71,-12.93 12.24,-19.89 -14.75,-37.06 -12.79,-78.52 5.21,-114.01zm28 172.98c-21.45,1.25 -39.51,-10.35 -45.45,-28.16 -5.94,17.81 -24,29.41 -45.45,28.16l0.7 5.66c20.8,-1.74 38.05,-13.25 44.75,-28.83 6.7,15.58 23.95,27.09 44.75,28.83l0.7 -5.66z"/>
    <path class="fil6" d="M112.43 328.15c11,-24.56 -13.7,-62.2 -35.78,-54.54 -16.34,5.67 -17.29,31.79 -5.62,49.8 -1.3,-15.07 8.21,-28.78 21.09,-28.78 14.78,0 24.25,17.54 20.31,33.52zm-28.58 59.47c-3.43,-1.06 -7.16,-1.78 -11.08,-2.11 -17.95,-1.49 -33.15,6.01 -33.96,16.75 -0.8,10.53 13.98,21.2 19.21,14.58 5.17,-8.54 -8.39,-10.55 -7.71,-3.15 -13.41,-12.19 4.94,-24.72 28.01,-23.02l5.53 -3.05zm18.96 -13.48c-22.4,-5.11 -38.66,-20.1 -37.27,-37.69 -3.94,4.98 -6.15,10.57 -6.15,16.49 0,14.76 13.75,27.53 33.75,33.67 5.54,1.7 11.57,2.89 17.92,3.47l-8.57 -15.12 0.32 -0.82z"/>
    <path class="fil7" d="M232.75 330.41c-26.42,-29.58 -95.79,-1.26 -98.74,40.12 4.17,-0.94 8.5,-2.35 12.64,-4.21 1.53,-28.41 54.95,-55 70.57,-35.18 8.5,10.79 -1.08,29.79 -19.82,42.28 3.8,4.31 6.55,9.34 7.91,14.82 4.07,16.44 -4.94,32.91 -21.66,40.87l-1.45 9.38c9.47,-1.78 17.98,-5.62 24.77,-10.92 5.3,1.19 10.7,-0.08 14.91,-3.26 -14.08,-6.92 -13.92,-24.22 1.49,-30.48 -0.2,-3.02 -0.77,-5.97 -1.68,-8.79 18.95,-16.93 24.15,-39.98 11.06,-54.63z"/>
    <path class="fil8" d="M105.99 370.53c-2.95,-41.38 -72.32,-69.7 -98.74,-40.12 -13.09,14.65 -7.89,37.7 11.06,54.63 -0.91,2.82 -1.48,5.77 -1.68,8.79 15.41,6.26 15.57,23.56 1.49,30.48 4.21,3.18 9.61,4.45 14.91,3.26 6.79,5.3 15.3,9.14 24.77,10.92l-1.45 -9.38c-16.72,-7.96 -25.73,-24.43 -21.66,-40.87 1.36,-5.48 4.11,-10.51 7.91,-14.82 -18.74,-12.49 -28.32,-31.49 -19.82,-42.28 15.62,-19.82 69.04,6.77 70.57,35.18 4.14,1.86 8.47,3.27 12.64,4.21z"/>
   </g>
   <path class="fil9" d="M120 465.09c4.14,0 7.5,3.34 7.5,7.45 0,4.12 -3.36,7.46 -7.5,7.46 -4.14,0 -7.5,-3.34 -7.5,-7.46 0,-4.11 3.36,-7.45 7.5,-7.45z"/>
  </g>
 </g>
</svg>
