<svg width="32" height="32" viewBox="0 0 32 32" fill="none" xmlns="http://www.w3.org/2000/svg">
<path fill-rule="evenodd" clip-rule="evenodd" d="M10.0947 14.2718C9.82263 13.6755 9.71263 13.2326 9.97316 12.5987C10.2076 12.0342 10.8039 11.3424 11.3308 11.0297C11.6116 10.8647 11.9532 10.8503 12.2455 10.9979C12.7926 11.2758 13.7074 12.4163 14.0403 12.9605C14.1908 13.2095 14.3761 13.5568 14.3645 13.8579C14.3558 14.1011 14.2863 14.3326 14.1474 14.5324C13.9389 14.845 13.5076 15.0361 13.5453 15.3979C13.5771 15.6729 14.1821 16.5876 14.3876 16.8424C14.7292 17.2708 15.1576 17.6239 15.6382 17.8903C15.8639 18.0147 16.7497 18.4316 16.9813 18.42C17.2968 18.3939 17.4271 17.8353 17.6818 17.5747C17.8353 17.4184 18.0321 17.2968 18.2463 17.2563C18.7008 17.1724 19.3897 17.5255 19.7747 17.7455C20.2003 17.9887 21.0079 18.5155 21.2974 18.9295C21.4797 19.1958 21.5318 19.5345 21.4392 19.8442C21.2482 20.4811 20.6779 21.3234 20.1047 21.6795C19.8384 21.8474 19.5663 21.9168 19.2508 21.8908C18.2318 21.8097 16.1534 20.7705 15.2618 20.2147C14.1213 19.5055 13.0705 18.6111 12.2253 17.5661C11.4958 16.6687 10.5782 15.3226 10.0947 14.2718ZM27 16C27 9.92395 22.0761 5 16 5C9.92395 5 5 9.92395 5 16C5 17.8497 5.45737 19.5924 6.26211 21.1208L5 27L10.6129 25.5932C12.205 26.4876 14.0432 27 16 27C22.0761 27 27 22.0761 27 16ZM7.17105 24.7537L10.8503 23.8332L11.4234 24.1545C12.8245 24.9418 14.3934 25.35 16 25.35C21.1642 25.35 25.35 21.1642 25.35 16C25.35 10.8358 21.1642 6.65 16 6.65C10.8358 6.65 6.65 10.8358 6.65 16C6.65 17.5197 7.01184 19.0076 7.72105 20.3508L8.00184 20.8834L7.17105 24.7537Z" fill="url(#paint0_linear_320_3079)"/>
<defs>
<linearGradient id="paint0_linear_320_3079" x1="16" y1="5" x2="22.851" y2="24.8932" gradientUnits="userSpaceOnUse">
<stop offset="0.385417" stop-color="#E5D193"/>
<stop offset="1" stop-color="#EBE1C2"/>
</linearGradient>
</defs>
</svg>
