<svg aria-hidden="true" style="position: absolute; width: 0; height: 0; overflow: hidden;" version="1.1" xmlns="http://www.w3.org/2000/svg" xmlns:xlink="http://www.w3.org/1999/xlink">
<defs>
<symbol id="icon-arrow-to-left" viewBox="0 0 32 32">
<path stroke-linejoin="miter" stroke-linecap="butt" stroke-miterlimit="4" stroke-width="1" d="M16 2c0 1.48-1.467 3.695-2.949 5.555-1.909 2.395-4.188 4.487-6.803 6.084-1.959 1.196-4.337 2.344-6.248 2.344M16 30c0-1.48-1.467-3.695-2.949-5.555-1.909-2.395-4.188-4.487-6.803-6.084-1.959-1.196-4.337-2.344-6.248-2.344M0 16h32"></path>
</symbol>
<symbol id="icon-arrow-to-right-small" viewBox="0 0 32 32">
<path stroke-linejoin="miter" stroke-linecap="butt" stroke-miterlimit="4" stroke-width="1" d="M21.333 6.667c0 0.989 0.977 2.467 1.967 3.707 1.272 1.6 2.792 2.996 4.535 4.061 1.307 0.799 2.891 1.565 4.165 1.565M32 16c-1.275 0-2.86 0.767-4.165 1.565-1.743 1.067-3.263 2.463-4.535 4.060-0.989 1.241-1.967 2.721-1.967 3.708M32 16h-32"></path>
</symbol>
<symbol id="icon-arrow-to-right" viewBox="0 0 32 32">
<path stroke-linejoin="miter" stroke-linecap="butt" stroke-miterlimit="4" stroke-width="1" d="M16 2c0 1.48 1.467 3.695 2.949 5.555 1.909 2.395 4.188 4.487 6.803 6.084 1.959 1.196 4.337 2.344 6.248 2.344M16 30c0-1.48 1.467-3.695 2.949-5.555 1.909-2.395 4.188-4.487 6.803-6.084 1.959-1.196 4.337-2.344 6.248-2.344M32 16h-32"></path>
</symbol>
<symbol id="icon-bell" viewBox="0 0 32 32">
<path stroke-linejoin="miter" stroke-linecap="butt" stroke-miterlimit="4" stroke-width="1" d="M19.333 26.667c0 0.884-0.351 1.732-0.976 2.357s-1.473 0.976-2.357 0.976c-0.884 0-1.732-0.351-2.357-0.976s-0.976-1.473-0.976-2.357M30 23.333h-28v-0.333l1.131-1.211c2.299-2.463 3.761-5.59 4.179-8.933l0.448-3.579c0.251-2.009 1.227-3.858 2.745-5.198s3.473-2.080 5.498-2.080c2.025 0 3.98 0.74 5.498 2.080s2.494 3.189 2.745 5.198l0.448 3.58c0.418 3.343 1.88 6.469 4.179 8.932l1.131 1.211v0.333z"></path>
</symbol>
<symbol id="icon-chat" viewBox="0 0 32 32">
<path stroke-linejoin="miter" stroke-linecap="butt" stroke-miterlimit="4" stroke-width="1" d="M7.999 11.333h16M7.999 17.333h8M31.333 2.667h-0.667c-4 0.667-10.667 1-14.667 1s-10.667-0.333-14.667-1h-0.667v28.667h0.333l0.205-0.205c1.943-1.943 4.249-3.484 6.788-4.535s5.259-1.593 8.007-1.593c4 0 10.667 0.333 14.667 1h0.667v-23.333z"></path>
</symbol>
<symbol id="icon-climbing-wall" viewBox="0 0 32 32">
<path stroke-linejoin="miter" stroke-linecap="butt" stroke-miterlimit="4" stroke-width="1" d="M21.333 5.333l-4.828 4.828c-0.372 0.372-0.813 0.666-1.298 0.867s-1.006 0.305-1.531 0.304h-5.009l-2.828 2.828c-0.372 0.371-0.666 0.813-0.867 1.298s-0.305 1.006-0.304 1.531v4.343M8.666 14.667v6.075c0 0.513 0.153 1.014 0.438 1.44s0.69 0.758 1.164 0.954c0.474 0.196 0.995 0.247 1.498 0.147s0.965-0.347 1.327-0.709l4.573-4.573h0.333l0.395 0.789c1.034 2.068 2.792 3.685 4.939 4.544M15.999 23.997c-0.025-0.049-0.050-0.098-0.075-0.147l-0.259-0.517 0.333 0.664zM15.999 23.997c1.561 3.034 4.165 5.402 7.333 6.669M25.999 32v-21.333l-3.333-3.333M15.999 0.667l3.333 3.333M13.999 11.333v6.667M10.259 8.667c0 0-2.413-0.743-2.847-2.368-0.161-0.602-0.078-1.243 0.233-1.784s0.822-0.936 1.423-1.1c0.297-0.080 0.607-0.099 0.913-0.059s0.599 0.142 0.865 0.296c0.266 0.155 0.499 0.361 0.685 0.606s0.322 0.525 0.399 0.823c0.432 1.625-1.283 3.48-1.283 3.48l-0.388 0.105z"></path>
</symbol>
<symbol id="icon-close-btn" viewBox="0 0 32 32">
<path stroke-linejoin="round" stroke-linecap="butt" stroke-miterlimit="4" stroke-width="1" d="M16 0.5c8.56 0 15.5 6.94 15.5 15.5s-6.94 15.5-15.5 15.5c-8.56 0-15.5-6.94-15.5-15.5s6.94-15.5 15.5-15.5z"></path>
<path stroke-linejoin="miter" stroke-linecap="butt" stroke-miterlimit="4" stroke-width="1" d="M16 13.306l5.307-5.306 0.135 0.135 0.116 0.174c0.563 0.845 1.288 1.571 2.133 2.134l0.175 0.117 0.134 0.135-5.306 5.306 5.306 5.307-0.135 0.134-0.174 0.116c-0.845 0.563-1.57 1.288-2.134 2.133l-0.116 0.175-0.134 0.134-5.307-5.306-5.306 5.306-0.135-0.135-0.117-0.174c-0.563-0.845-1.288-1.57-2.133-2.134l-0.175-0.116-0.134-0.134 5.307-5.307-5.307-5.306 0.135-0.135 0.174-0.117c0.845-0.563 1.57-1.288 2.133-2.133l0.117-0.175 0.135-0.134 5.306 5.306z"></path>
</symbol>
<symbol id="icon-download" viewBox="0 0 32 32">
<path stroke-linejoin="miter" stroke-linecap="butt" stroke-miterlimit="4" stroke-width="1" d="M16 22.837v-20.837M22.522 15.674c-0.753 0-2.037 0.866-2.992 1.599-0.841 0.636-1.573 1.403-2.168 2.273-0.638 0.947-1.362 2.249-1.362 3.278 0-1.029-0.725-2.331-1.362-3.278-0.595-0.869-1.327-1.637-2.168-2.273-0.955-0.733-2.239-1.599-2.992-1.599M22.522 11.767h5.87v0.428c-0 5.762 0.832 11.494 2.472 17.019l0.137 0.46v0.326h-30v-0.326l0.137-0.46c1.639-5.525 2.472-11.257 2.472-17.019v-0.428h5.87"></path>
</symbol>
<symbol id="icon-facebook-icon" viewBox="0 0 32 32">
<path d="M13.308 17.303h-3.308v-4.004h3.308v-3.525c0-2.64 2.002-4.774 4.472-4.774 1.136 0 2.222 0.113 3.22 0.319v3.402h-1.878c-0.987 0-1.788 0.853-1.788 1.906v2.673h3.575l-0.484 4.004h-3.091v9.697h-4.026v-9.697z"></path>
</symbol>
<symbol id="icon-gmail-icon" viewBox="0 0 32 32">
<path d="M10 24v-8.755l-2.636-2.484-2.364-1.379v11.073c0 0.855 0.673 1.545 1.5 1.545h3.5z"></path>
<path d="M22 24h3.5c0.83 0 1.5-0.693 1.5-1.545v-11.073l-2.678 1.579-2.323 2.284v8.755z"></path>
<path d="M9.999 15.245l-0.359-3.421 0.359-3.274 6 4.635 6-4.635 0.401 3.097-0.401 3.598-6 4.635-6-4.635z"></path>
<path d="M22 8.549v6.695l5-3.863v-2.060c0-1.911-2.118-3-3.6-1.854l-1.4 1.081z"></path>
<path d="M5 11.382l5 3.863v-6.695l-1.4-1.082c-1.485-1.146-3.6-0.057-3.6 1.854v2.060z"></path>
</symbol>
<symbol id="icon-guidance_lock" viewBox="0 0 32 32">
<path stroke-linejoin="miter" stroke-linecap="butt" stroke-miterlimit="4" stroke-width="1" d="M8.666 14v-6c0-1.945 0.773-3.81 2.148-5.185s3.241-2.148 5.185-2.148c1.945 0 3.81 0.773 5.186 2.148s2.148 3.241 2.148 5.185v6M15.999 20v5.333M27.333 31.333h-22.667v-0.333l0.1-0.436c1.199-5.197 1.199-10.598 0-15.795l-0.1-0.436v-0.333h22.667v0.333l-0.1 0.436c-1.199 5.197-1.199 10.598 0 15.795l0.1 0.436v0.333z"></path>
</symbol>
<symbol id="icon-guidance_pull" viewBox="0 0 32 32">
<path stroke-linejoin="miter" stroke-linecap="butt" stroke-miterlimit="4" stroke-width="1" d="M14.667 6.667h4v0.667c0 1.061-0.422 2.078-1.172 2.828s-1.768 1.171-2.828 1.171h1.667c0.619 0 1.212 0.246 1.65 0.684s0.683 1.031 0.683 1.65c0 0.619-0.246 1.212-0.683 1.65s-1.031 0.683-1.65 0.683h-1.333c0.306 0 0.61 0.060 0.893 0.178s0.54 0.289 0.757 0.506c0.217 0.217 0.389 0.474 0.506 0.757s0.178 0.587 0.178 0.893c0 0.306-0.060 0.61-0.178 0.893s-0.289 0.54-0.506 0.757c-0.217 0.217-0.474 0.389-0.757 0.506s-0.586 0.178-0.893 0.178h-1.333c0.619 0 1.212 0.246 1.65 0.683s0.683 1.031 0.683 1.65c0 0.619-0.246 1.212-0.683 1.65s-1.031 0.683-1.65 0.683h-13.667M10.667 6.667h-6c0 1.238-0.492 2.425-1.367 3.3s-2.062 1.367-3.3 1.367M12.667 11.333v-10.667h6.667M12.667 25.333v6h6.667M21.333 16h10.667M27.428 10.667c0 0.564-0.559 1.408-1.123 2.116-0.722 0.918-1.599 1.702-2.592 2.317-0.747 0.456-1.652 0.893-2.38 0.893M27.429 21.333c0-0.564-0.56-1.408-1.124-2.116-0.722-0.918-1.599-1.702-2.592-2.317-0.747-0.456-1.652-0.893-2.38-0.893"></path>
</symbol>
<symbol id="icon-hotel-room" viewBox="0 0 32 32">
<path stroke-linejoin="miter" stroke-linecap="butt" stroke-miterlimit="4" stroke-width="1" d="M2 24.667v-6l0.901-0.245c8.576-2.339 17.621-2.339 26.197 0l0.901 0.245v6M2 24.667c0 0 0 4-2 4M2 24.667h28M30 24.667c0 0 0 4 2 4M4.667 14.667c0-2.652-0.396-5.288-1.176-7.823l-0.157-0.511v-0.333h25.333v0.333l-0.157 0.511c-0.78 2.534-1.176 5.171-1.176 7.823M16 10h-7.333v4.667M16 10v4.667M16 10h7.333v4.667"></path>
</symbol>
<symbol id="icon-key-skeleton" viewBox="0 0 32 32">
<path d="M27.831 4.184c-0.055-0.057-0.12-0.102-0.192-0.134s-0.15-0.048-0.229-0.050-0.157 0.013-0.23 0.041c-0.073 0.029-0.14 0.072-0.197 0.127l-2.269 2.269c-0.012 0.011-0.026 0.014-0.036 0.026-0.011 0.010-0.014 0.024-0.024 0.034l-11.897 11.898c-0.949-0.771-2.133-1.194-3.355-1.198-1.068 0-2.113 0.317-3.001 0.91s-1.581 1.437-1.989 2.424-0.516 2.073-0.307 3.121c0.208 1.048 0.723 2.010 1.478 2.766s1.718 1.27 2.766 1.478c1.048 0.208 2.134 0.101 3.121-0.307s1.831-1.101 2.424-1.989 0.91-1.933 0.91-3.001c-0.004-1.222-0.427-2.406-1.198-3.355l8.111-8.111 2.968 2.97c0.056 0.056 0.122 0.1 0.195 0.131s0.151 0.046 0.23 0.046 0.157-0.016 0.23-0.046c0.073-0.030 0.139-0.075 0.195-0.131 0.113-0.113 0.176-0.265 0.176-0.424s-0.063-0.312-0.176-0.424l-2.968-2.971 2.546-2.546 1.272 1.271c0.055 0.056 0.122 0.1 0.194 0.13s0.151 0.046 0.229 0.046c0.079 0 0.157-0.016 0.23-0.046s0.139-0.075 0.194-0.13c0.113-0.113 0.176-0.265 0.176-0.424s-0.063-0.312-0.176-0.424l-1.271-1.272 1.872-1.871c0.108-0.112 0.168-0.261 0.168-0.417s-0.060-0.305-0.168-0.417l-0.001 0.001zM9.402 26.8c-1.114 0-2.183-0.443-2.971-1.23s-1.231-1.857-1.231-2.971c0-1.114 0.443-2.183 1.231-2.971s1.856-1.23 2.971-1.23c1.114 0 2.183 0.443 2.971 1.23s1.23 1.857 1.23 2.971c0 1.114-0.443 2.183-1.23 2.971s-1.857 1.23-2.971 1.23z"></path>
</symbol>
<symbol id="icon-keyhole" viewBox="0 0 32 32">
<path d="M18.571 14.249c0 0.543-0.165 1.073-0.471 1.516s-0.741 0.779-1.243 0.96v3.649c0 0.232-0.090 0.455-0.251 0.619s-0.379 0.256-0.606 0.256-0.445-0.092-0.606-0.256c-0.161-0.164-0.251-0.387-0.251-0.619v-3.649c-0.444-0.16-0.837-0.442-1.135-0.815s-0.49-0.822-0.555-1.299c-0.065-0.477 0-0.962 0.187-1.404s0.49-0.822 0.875-1.1 0.837-0.443 1.307-0.476c0.47-0.033 0.94 0.066 1.359 0.287s0.77 0.555 1.015 0.966c0.245 0.411 0.375 0.883 0.375 1.364zM16.475 2.147c-0.141-0.096-0.306-0.147-0.475-0.147s-0.334 0.051-0.475 0.147c-3.236 2.227-6.925 3.676-10.79 4.237-0.204 0.030-0.391 0.134-0.526 0.293s-0.209 0.363-0.209 0.573v7.875c0 6.809 3.955 11.777 11.691 14.817 0.199 0.078 0.419 0.078 0.617 0 7.736-3.040 11.691-8.010 11.691-14.817v-7.875c0-0.211-0.075-0.415-0.21-0.574s-0.323-0.263-0.527-0.293c-3.864-0.561-7.552-2.010-10.788-4.237zM5.714 7.998c3.396-0.587 6.653-1.823 9.6-3.643l0.686-0.436 0.686 0.436c2.947 1.82 6.204 3.056 9.6 3.643v7.126c0 5.936-3.374 10.26-10.286 13.060-6.912-2.8-10.286-7.124-10.286-13.060v-7.126z"></path>
</symbol>
<symbol id="icon-library" viewBox="0 0 32 32">
<path stroke-linejoin="miter" stroke-linecap="butt" stroke-miterlimit="4" stroke-width="1" d="M16.666 10.324v13.694M16.666 10.324c0-1.147-0.44-2.247-1.223-3.058s-1.844-1.267-2.951-1.267h-9.739v1.564c0 6.625-0.7 13.23-2.087 19.697v0.36h11.826c1.107 0 2.169 0.456 2.951 1.267s1.223 1.911 1.223 3.058M16.666 10.324c0-1.147 0.44-2.247 1.223-3.058s1.844-1.267 2.951-1.267h9.739v1.564c0 6.625 0.7 13.23 2.087 19.697v0.36h-11.826c-1.107 0-2.169 0.456-2.951 1.267s-1.223 1.911-1.223 3.058M16.666 31.946v0.721"></path>
</symbol>
<symbol id="icon-litining" viewBox="0 0 32 32">
<path stroke-linejoin="miter" stroke-linecap="butt" stroke-miterlimit="4" stroke-width="1" d="M16.219 10.447l1.733-1.733c0.861-0.889 1.337-2.080 1.327-3.317s-0.506-2.421-1.381-3.296-2.058-1.371-3.296-1.381c-1.237-0.010-2.429 0.467-3.317 1.327l-1.733 1.733c-0.583 0.583-1.293 1.023-2.077 1.284l-2.809 0.936v0.333l9 9h0.333l0.937-2.809c0.26-0.783 0.7-1.493 1.283-2.077zM16.219 10.447l0.14 0.22c1.587 2.759 4.133 4.837 7.153 5.84M23.513 16.507c0.187-0.411 0.505-0.746 0.907-0.952s0.861-0.27 1.303-0.182 0.842 0.323 1.134 0.668c0.292 0.344 0.459 0.777 0.474 1.228s-0.123 0.894-0.392 1.256c-0.268 0.363-0.652 0.624-1.087 0.741s-0.898 0.084-1.313-0.095c-0.414-0.179-0.756-0.493-0.969-0.89-0.146-0.271-0.228-0.572-0.238-0.88s0.052-0.613 0.18-0.893zM8.666 14c-0.175 0.175-0.383 0.314-0.612 0.409s-0.474 0.144-0.722 0.144c-0.5 0-0.98-0.199-1.333-0.552-0.175-0.175-0.314-0.383-0.409-0.612s-0.144-0.474-0.144-0.722c0-0.5 0.199-0.98 0.552-1.333M17.951 2.048l1.515-1.515M15.999 27.333c0-0.88 0.151-1.763 0.553-2.547 1.506-2.924 3.989-5.226 7.019-6.507M15.999 27.333c7.333 0 11.333 2.667 11.333 2.667v1.333h-22.667v-1.333c0 0 4-2.667 11.333-2.667z"></path>
</symbol>
<symbol id="icon-location-pin" viewBox="0 0 32 32">
<path stroke-linejoin="miter" stroke-linecap="butt" stroke-miterlimit="4" stroke-width="1" d="M16 31.893c-0.015-1.662-0.373-3.303-1.052-4.819s-1.665-2.877-2.894-3.994l-3.423-3.112c-1.144-1.045-2.058-2.317-2.683-3.736s-0.948-2.951-0.948-4.5c0-6.076 4.925-11.065 11-11.065s11 4.988 11 11.064c0 3.124-1.319 6.133-3.631 8.236l-3.424 3.112c-1.23 1.118-2.215 2.477-2.894 3.994s-1.037 3.157-1.052 4.819l0.001 0.001zM16 31.893v0.031M16 15.333c-0.884 0-1.732-0.351-2.357-0.976s-0.976-1.473-0.976-2.357c0-0.884 0.351-1.732 0.976-2.357s1.473-0.976 2.357-0.976c0.884 0 1.732 0.351 2.357 0.976s0.976 1.473 0.976 2.357c0 0.884-0.351 1.732-0.976 2.357s-1.473 0.976-2.357 0.976z"></path>
</symbol>
<symbol id="icon-mail" viewBox="0 0 32 32">
<path stroke-linejoin="miter" stroke-linecap="butt" stroke-miterlimit="4" stroke-width="1" d="M0.666 8.667l15.167 9.333h0.333l15.167-9.333M31.333 5.333v22h-0.667c-4-0.667-10.667-1-14.667-1s-10.667 0.333-14.667 1h-0.667v-22c4-0.667 11.333-1 15.333-1s11.333 0.333 15.333 1z"></path>
</symbol>
<symbol id="icon-old-key" viewBox="0 0 32 32">
<path d="M26.316 7.936c0.804-0.456 1.345-1.311 1.345-2.292 0-1.459-1.198-2.642-2.675-2.642-0.47-0.001-0.931 0.121-1.339 0.354s-0.747 0.569-0.983 0.975c-0.293-0.507-0.715-0.928-1.223-1.22s-1.084-0.445-1.669-0.444c-1.839 0-3.329 1.472-3.329 3.287s1.49 3.287 3.328 3.287c0.157 0 0.311-0.011 0.463-0.032l-0.471 0.465-1.009 0.017-0.017 0.996-0.289 0.285-0.077-0.077c-0.111-0.108-0.26-0.169-0.415-0.169s-0.304 0.061-0.415 0.169l-0.052 0.051c-0.054 0.054-0.097 0.118-0.127 0.188s-0.045 0.146-0.045 0.222c0 0.076 0.015 0.152 0.045 0.222s0.073 0.134 0.127 0.188l0.078 0.077-12.354 12.199 0.243 0.239-0.328 0.323c-0.347-0.163-0.717-0.146-0.942 0.076-0.312 0.308-0.224 0.895 0.196 1.31s1.014 0.502 1.326 0.194c0.225-0.222 0.241-0.588 0.077-0.93l0.327-0.324 0.242 0.24 1.707-1.686 0.709 0.701-1.858 1.834 0.785 0.775 0.484-0.478 0.704 0.695-0.484 0.478 0.393 0.388 0.034 0.034 1.443 1.424 1.337-1.321-1.442-1.424 0.935-0.923 1.407 1.39 0.992-0.98-1.407-1.39 0.934-0.923 1.476 1.458 1.338-1.321-1.903-1.88-0.485 0.478-0.703-0.695 0.485-0.478-0.785-0.775-1.857 1.834-0.709-0.7 8.825-8.715 0.077 0.077c0.111 0.108 0.26 0.169 0.415 0.169s0.304-0.061 0.415-0.169l0.052-0.051c0.054-0.054 0.097-0.117 0.127-0.188s0.044-0.146 0.044-0.222c0-0.076-0.015-0.152-0.044-0.222s-0.073-0.134-0.127-0.188l-0.078-0.077 0.289-0.285 1.009-0.017 0.016-0.996 0.472-0.465c-0.022 0.152-0.033 0.305-0.033 0.458 0 1.815 1.491 3.287 3.328 3.287s3.328-1.472 3.328-3.287c0-1.225-0.678-2.292-1.684-2.857zM24.676 12.984c-0.291 0-0.58-0.057-0.85-0.169s-0.514-0.275-0.72-0.481c-0.206-0.206-0.37-0.451-0.481-0.72s-0.169-0.558-0.169-0.85c0-0.457 0.142-0.902 0.407-1.275l-0.555-0.552 0.229-0.227c0.346 0.162 0.717 0.146 0.942-0.076 0.312-0.308 0.225-0.895-0.196-1.31s-1.014-0.502-1.326-0.194c-0.225 0.221-0.241 0.588-0.076 0.93l-0.229 0.227-0.556-0.554c-0.381 0.287-0.844 0.443-1.32 0.444-0.439 0-0.868-0.13-1.233-0.374s-0.649-0.59-0.817-0.995c-0.168-0.405-0.212-0.851-0.127-1.282s0.296-0.826 0.606-1.137c0.31-0.311 0.705-0.522 1.135-0.609s0.876-0.043 1.282 0.124 0.753 0.451 0.997 0.815c0.245 0.364 0.376 0.793 0.377 1.232h1.373c-0.017-0.093-0.027-0.188-0.028-0.282-0-0.34 0.105-0.672 0.3-0.95s0.472-0.489 0.792-0.604c0.32-0.115 0.668-0.128 0.996-0.038s0.62 0.28 0.836 0.542c0.216 0.263 0.346 0.585 0.372 0.925s-0.054 0.678-0.228 0.97-0.434 0.523-0.745 0.662c-0.311 0.138-0.656 0.178-0.99 0.112v1.255l0.004-0c0.291-0 0.58 0.057 0.849 0.169s0.514 0.275 0.72 0.481 0.37 0.451 0.481 0.72c0.111 0.269 0.169 0.558 0.169 0.849s-0.057 0.58-0.169 0.85c-0.111 0.269-0.275 0.514-0.481 0.72s-0.451 0.37-0.72 0.481c-0.269 0.112-0.558 0.169-0.85 0.169z"></path>
</symbol>
<symbol id="icon-showers" viewBox="0 0 32 32">
<path stroke-linejoin="miter" stroke-linecap="butt" stroke-miterlimit="4" stroke-width="1" d="M17.637 6.363l4.040-4.040c0.791-0.791 1.799-1.33 2.896-1.548s2.235-0.106 3.268 0.322c1.034 0.428 1.917 1.153 2.539 2.084s0.953 2.024 0.953 3.143v25.677M7.737 10.605l-1.884 1.885M5.382 15.791l-1.889 1.885M2.55 12.963l-1.884 1.885M8.209 18.62l-1.885 1.885M11.037 21.448l-1.885 1.885M13.394 16.263l-1.885 1.884M10.566 13.432l-1.887 1.888M14.337 3.063l-0.207 0.207c-1.385 1.385-3.231 2.214-5.187 2.329l-0.971 0.057-0.236 0.236 10.372 10.371 0.235-0.236 0.057-0.971c0.115-1.956 0.944-3.801 2.329-5.187l0.207-0.207-6.6-6.6z"></path>
</symbol>
<symbol id="icon-star" viewBox="0 0 32 32">
<path stroke-linejoin="miter" stroke-linecap="butt" stroke-miterlimit="4" stroke-width="1" d="M15.681 2h0.637l0.825 2.991c0.621 2.25 1.964 4.234 3.821 5.647s4.127 2.179 6.461 2.179h2.575v0.516l-2.208 1.524c-1.869 1.29-3.277 3.142-4.021 5.287s-0.783 4.472-0.113 6.641l0.993 3.215h-0.652l-1.205-0.996c-1.912-1.58-4.314-2.444-6.795-2.444s-4.883 0.864-6.795 2.444l-1.205 0.996h-0.653l0.995-3.213c0.671-2.169 0.631-4.496-0.112-6.642s-2.152-3.998-4.021-5.287l-2.208-1.524v-0.515h2.573c2.334 0 4.604-0.765 6.462-2.18s3.2-3.398 3.821-5.649l0.827-2.991h-0.001z"></path>
</symbol>
<symbol id="icon-telegram-icon" viewBox="0 0 32 32">
<path d="M24.873 7.021c-0.703 0.107-3.534 1.485-4.4 1.867-1.429 0.636-2.871 1.302-4.297 1.949-2.889 1.305-5.771 2.587-8.66 3.87-0.55 0.245-1.855 0.751-1.434 1.547 0.242 0.458 1.531 0.756 2.145 0.982 0.668 0.247 1.684 0.636 2.421 0.692 1.15 0.093 1.605-0.396 2.287-0.892 1.734-1.254 3.75-2.691 5.452-3.996 0.090-0.070 3.166-2.545 2.687-1.094-0.11 0.343-0.466 0.782-0.639 0.962-1.397 1.465-3.331 3.532-4.689 4.832-0.208 0.2-0.629 0.619-0.771 0.816-0.787 1.091 0.6 1.912 1.639 2.703 1.192 0.906 2.437 1.797 3.671 2.677 1.289 0.92 3.221 2.104 3.6-0.61 0.645-4.621 1.516-9.79 2.055-14.357 0.129-1.088 0.168-2.129-1.066-1.946z"></path>
</symbol>
<symbol id="icon-telephone" viewBox="0 0 32 32">
<path stroke-linejoin="miter" stroke-linecap="butt" stroke-miterlimit="4" stroke-width="1" d="M20.737 14.629c2.773-2.925 2.773-7.667 0-10.592M23.933 18c4.536-4.787 4.536-12.547 0-17.333M18 11.741c1.26-1.331 1.26-3.485 0-4.816M9.253 31.333c-6.116-6.996-6.116-18.337 0-25.333h4.747v6.333h-3.955v12.667h3.955v6.333h-4.747z"></path>
</symbol>
<symbol id="icon-tunnel" viewBox="0 0 32 32">
<path stroke-linejoin="miter" stroke-linecap="butt" stroke-miterlimit="4" stroke-width="1" d="M30 28v-15.167M30 12.833l-5.517 1.38M30 12.833v-6.244c0 0-1.6-1.377-4.475-2.624M2 28v-15.167M2 12.833v-6.244c0 0 1.6-1.376 4.475-2.624M2 12.833l5.517 1.38M16 2v5.333M16 2c-3.919 0-7.155 0.937-9.525 1.965M16 2c3.919 0 7.155 0.937 9.525 1.965M16 7.333c-2.013-0.003-3.964 0.697-5.515 1.98M16 7.333c2.095 0 4.016 0.743 5.515 1.98M6.475 3.965l4.011 5.348M25.525 3.965l-4.011 5.348M0 30h32M7.333 28v-12c0-0.613 0.064-1.211 0.184-1.787M7.517 14.213c0.405-1.923 1.452-3.65 2.968-4.9M24.667 28v-12c0-0.613-0.064-1.211-0.184-1.787M24.483 14.213c-0.405-1.923-1.452-3.651-2.968-4.9M30 22h-5.333M2 22h5.333"></path>
</symbol>
<symbol id="icon-Vector" viewBox="0 0 16 32">
<path stroke-linejoin="round" stroke-linecap="butt" stroke-miterlimit="4" stroke-width="0.5333" d="M7.083 9.332h1.832c0.112 0 0.204 0.090 0.204 0.2s-0.092 0.2-0.204 0.2h-1.832c-0.112 0-0.204-0.090-0.204-0.2s0.092-0.2 0.204-0.2zM4.335 24.424c1.894 0 3.434 1.53 3.642 3.59h0.046c0.208-2.060 1.748-3.59 3.642-3.59 2.176 0 3.696 2 3.664 4.024-0.030 2.048-2.464 3.384-4.726 2.828 0.684-0.020 3.504 0.050 3.504-2.864 0-1.542-1.366-2.792-3.052-2.792-1.562 0-2.814 1.064-3.022 2.394 0.434 0.018 0.78 0.368 0.78 0.796 0 0.442-0.364 0.798-0.814 0.798s-0.814-0.356-0.814-0.798c0-0.428 0.346-0.778 0.782-0.796-0.21-1.33-1.46-2.394-3.022-2.394-1.686 0-3.054 1.25-3.054 2.792 0 2.914 2.822 2.844 3.506 2.864-2.262 0.556-4.696-0.78-4.726-2.828-0.032-2.024 1.488-4.024 3.664-4.024zM8.475 31.632c1.8-0.188 3.19-1.434 3.19-2.94 0-0.914-0.51-1.73-1.312-2.274-0.43 0.156-0.882 0.272-1.348 0.34 1.192 0.322 2.048 1.204 2.048 2.24 0 1.192-1.13 2.178-2.602 2.346-0.074-0.172-0.248-0.292-0.452-0.292s-0.378 0.12-0.45 0.292c-1.474-0.168-2.604-1.154-2.604-2.346 0-1.036 0.858-1.918 2.050-2.24-0.466-0.068-0.918-0.184-1.348-0.34-0.802 0.544-1.312 1.36-1.312 2.274 0 1.506 1.39 2.752 3.188 2.94 0.050 0.212 0.244 0.368 0.476 0.368s0.428-0.156 0.476-0.368zM0.297 22.832c0.676-1.146 3.558-1.21 4.952-0.422 1.334 0.754 1.542 1.080 1.916 1.702-0.074 0.3-0.16 0.598-0.264 0.89l-0.046-0.042c-0.026-0.79-0.882-1.726-2.17-2.462-1.356-0.776-2.996-0.382-3.284 0.254-0.272 0.604 0.258 1.408 0.692 1.998-0.47 0.338-0.864 0.776-1.166 1.276-0.82-1.002-1.256-2.132-0.63-3.194zM14.599 22.752c0.272 0.604-0.258 1.408-0.694 1.998 0.474 0.342 0.872 0.784 1.174 1.288 0.278-0.326 0.496-0.672 0.648-1.022 0.33-0.704 0.396-1.436 0.002-2.138l-0.026-0.046h-0.002v-0.002l-0.020-0.032v-0.002h-0.002v-0.002h-0.002v-0.002c-0.82-1.292-3.548-1.162-4.926-0.382-1.336 0.754-1.542 1.080-1.916 1.702 0.072 0.3 0.16 0.598 0.262 0.89l0.048-0.042c0.026-0.79 0.882-1.726 2.168-2.462 1.358-0.776 2.916-0.564 3.286 0.254zM10.911 18.448c0.846 0.302 1.158 1.552 0.696 2.794-0.086 0.232-0.194 0.448-0.318 0.644 0.006-0.064 0.008-0.128 0.008-0.194 0-0.99-0.638-1.794-1.424-1.794-0.788 0-1.426 0.804-1.426 1.794 0 0.182 0.022 0.356 0.062 0.52-0.238-0.546-0.244-1.306 0.036-2.062 0.462-1.24 1.522-2.004 2.366-1.702zM5.087 18.448c0.846-0.302 1.904 0.462 2.366 1.702 0.282 0.756 0.276 1.516 0.038 2.062 0.040-0.164 0.060-0.338 0.060-0.52 0-0.99-0.638-1.794-1.424-1.794-0.788 0-1.426 0.804-1.426 1.794 0 0.066 0.004 0.13 0.008 0.194-0.122-0.196-0.23-0.412-0.316-0.644-0.462-1.242-0.15-2.492 0.694-2.794zM14.311 3.388h-5.294v-0.896h-2.036v6.578h2.036v-0.896h5.294v-1.77h-0.814v0.574h-1.466v-0.948c-0.108 0.32-0.414 0.548-0.774 0.548s-0.666-0.228-0.774-0.548v0.748h-1.466v-1.994h1.466v0.748c0.108-0.318 0.414-0.548 0.774-0.548s0.666 0.23 0.774 0.548v-0.946h1.466v0.768l0.814 0.428v-2.394zM7.999 15.39c0.478 0.668 0.874 1.394 1.174 2.168-0.648 1.312-1.010 2.782-1.010 4.334 0 1.204 0.218 2.356 0.616 3.424-0.32 0.354-0.582 0.762-0.78 1.208-0.196-0.446-0.458-0.854-0.78-1.208 0.4-1.068 0.618-2.22 0.618-3.424 0-1.552-0.364-3.022-1.010-4.334 0.3-0.774 0.696-1.5 1.172-2.168zM6.981 10.004h2.036v6.254c-0.204-0.38-0.432-0.746-0.684-1.098l-0.334-0.466-0.334 0.466c-0.25 0.352-0.478 0.72-0.684 1.098v-6.254zM7.389 0h1.222c0.336 0 0.61 0.27 0.61 0.598v0.398c0 0.33-0.274 0.598-0.61 0.598h-1.222c-0.336 0-0.612-0.268-0.612-0.598v-0.398c0-0.328 0.276-0.598 0.612-0.598zM7.083 1.844h1.832c0.112 0 0.204 0.090 0.204 0.2 0 0.108-0.092 0.198-0.204 0.198h-1.832c-0.112 0-0.204-0.090-0.204-0.198 0-0.11 0.092-0.2 0.204-0.2z"></path>
</symbol>
<symbol id="icon-viber-icon" viewBox="0 0 32 32">
<path d="M9.864 24.4c-3.897-1.056-5.864-3.769-5.864-10.013 0-8.769 2.7-11.387 11.744-11.387 9.294 0 12.256 2.128 12.256 11.387 0 8.844-3.884 10.603-12.256 10.603-0.591 0-1.159-0.009-1.705-0.031l-1.964 2.184c-0.414 0.466-0.919 1.028-1.633 0.806-0.445-0.137-0.581-0.569-0.581-1.034l0.003-2.516zM14.993 18.491c-1.26-0.897-2.419-2-3.316-3.253-0.707-0.988-2.173-3.409-2.362-4.509-0.066-0.378 0.013-0.662 0.199-0.984 0.322-0.559 1.083-1.206 1.661-1.456 0.237-0.1 0.508-0.084 0.733 0.047 0.562 0.331 2.176 2.412 2.078 3.109-0.025 0.188-0.095 0.35-0.212 0.497-0.379 0.478-0.985 0.519-0.973 1.206 0.006 0.394 0.606 1.441 0.831 1.787 0.417 0.637 0.973 1.166 1.62 1.578 0.363 0.231 1.427 0.816 1.809 0.822 0.695 0.009 0.748-0.6 1.219-0.962 0.142-0.109 0.322-0.197 0.502-0.209 0.758-0.056 2.792 1.459 3.148 2.053 0.136 0.222 0.152 0.488 0.047 0.725-0.256 0.578-0.932 1.334-1.472 1.637-0.325 0.181-0.613 0.262-0.998 0.197-1.153-0.194-3.581-1.622-4.516-2.284zM18.526 13c0-0.828-0.651-1.503-1.475-1.563-0.215-0.016-0.467-0.034-0.467-0.328 0-0.4 0.524-0.331 0.793-0.281 1.026 0.203 1.803 1.097 1.803 2.172 0 0.209-0.070 0.431-0.328 0.431-0.23 0-0.335-0.169-0.328-0.375l0.003-0.056zM11.168 26.95l3.3-3.837c0.423 0.016 0.862 0.022 1.314 0.022 7.112 0 10.412-1.462 10.412-8.813 0-7.697-2.517-9.466-10.412-9.466-7.68 0-9.976 2.175-9.976 9.466 0 5.047 1.579 7.316 4.712 8.244l-0.016 4.212c0 0.144 0 0.331 0.164 0.391 0.196 0.072 0.385-0.081 0.502-0.219zM20.168 13.428c0-1.941-1.516-3.494-3.423-3.656-0.12-0.009-0.357 0.003-0.455-0.037-0.117-0.047-0.199-0.159-0.199-0.294 0-0.275 0.253-0.309 0.474-0.309 2.384 0.012 4.279 1.941 4.279 4.297 0 0.106-0.003 0.266-0.041 0.359-0.047 0.113-0.171 0.181-0.3 0.181-0.341 0-0.335-0.303-0.335-0.541zM21.826 13.894c0-3.2-2.624-5.791-5.864-5.791-0.205 0-0.407-0.072-0.407-0.319 0-0.253 0.196-0.319 0.407-0.319 3.594 0 6.508 2.878 6.508 6.428 0 0.259 0.044 0.694-0.335 0.694-0.177 0-0.319-0.141-0.319-0.316 0-0.125 0.009-0.25 0.009-0.378z"></path>
</symbol>
<symbol id="icon-whatsapp-icon" viewBox="0 0 32 32">
<path d="M10.095 14.272c0.483 1.051 1.401 2.397 2.131 3.294 0.845 1.045 1.896 1.939 3.037 2.649 0.892 0.556 2.97 1.595 3.989 1.676 0.316 0.026 0.588-0.043 0.854-0.211 0.573-0.356 1.143-1.198 1.334-1.835 0.093-0.31 0.041-0.648-0.142-0.915-0.29-0.414-1.097-0.941-1.523-1.184-0.385-0.22-1.074-0.573-1.528-0.489-0.214 0.041-0.411 0.162-0.564 0.318-0.255 0.261-0.385 0.819-0.701 0.845-0.232 0.012-1.117-0.405-1.343-0.53-0.481-0.266-0.909-0.619-1.251-1.048-0.206-0.255-0.81-1.169-0.842-1.444-0.038-0.362 0.394-0.553 0.602-0.866 0.139-0.2 0.208-0.431 0.217-0.675 0.012-0.301-0.174-0.648-0.324-0.897-0.333-0.544-1.248-1.685-1.795-1.963-0.292-0.148-0.634-0.133-0.915 0.032-0.527 0.313-1.123 1.005-1.358 1.569-0.261 0.634-0.151 1.077 0.122 1.673zM27 16c0 6.076-4.924 11-11 11-1.957 0-3.795-0.512-5.387-1.407l-5.613 1.407 1.262-5.879c-0.805-1.528-1.262-3.271-1.262-5.121 0-6.076 4.924-11 11-11s11 4.924 11 11zM7.171 24.754l3.679-0.921 0.573 0.321c1.401 0.787 2.97 1.195 4.577 1.195 5.164 0 9.35-4.186 9.35-9.35s-4.186-9.35-9.35-9.35c-5.164 0-9.35 4.186-9.35 9.35 0 1.52 0.362 3.008 1.071 4.351l0.281 0.533-0.831 3.87z"></path>
</symbol>
</defs>
</svg>
